<svg width="1512" height="1512" viewBox="0 0 1512 1512" fill="none" xmlns="http://www.w3.org/2000/svg">
<g clip-path="url(#clip0_2473_21)">
<rect width="1512" height="3630" transform="translate(0 -1061)"/>
<path d="M81.3477 1005.34L92.166 1011.45L-266.437 1646.3L-323.206 1747.6L-334.213 1741.39L-317.345 1711.16L81.3477 1005.34Z" fill="white"/>
<rect x="102.984" y="1017.55" width="12.425" height="845.258" transform="rotate(29.4604 102.984 1017.55)" fill="white"/>
<rect x="124.625" y="1029.78" width="12.425" height="845.258" transform="rotate(29.4604 124.625 1029.78)" fill="white"/>
<rect x="146.256" y="1042" width="12.425" height="845.258" transform="rotate(29.4604 146.256 1042)" fill="white"/>
<rect x="167.895" y="1054.23" width="12.425" height="845.258" transform="rotate(29.4604 167.895 1054.23)" fill="white"/>
<rect x="189.529" y="1066.45" width="12.425" height="845.258" transform="rotate(29.4604 189.529 1066.45)" fill="white"/>
<mask id="mask0_2473_21" style="mask-type:alpha" maskUnits="userSpaceOnUse" x="-180" y="651" width="983" height="884">
<rect x="-179.814" y="1064.43" width="495" height="851" transform="rotate(-56.4636 -179.814 1064.43)" fill="#D9D9D9"/>
</mask>
<g mask="url(#mask0_2473_21)">
<path fill-rule="evenodd" clip-rule="evenodd" d="M-29.6893 1171.55L-370.522 944.634C-369.991 945.318 -369.39 945.945 -368.728 946.504L-30.025 1172C-29.9201 1171.86 -29.8081 1171.71 -29.6893 1171.55ZM102.809 1025.57C102.585 1025.34 102.331 1025.11 102.044 1024.88C81.58 1008.09 64.8291 988.159 51.2448 965.405C39.8876 946.38 31.5089 926.184 26.857 904.64C23.338 888.357 22.3902 871.708 27.0029 855.337C31.2025 840.45 39.0689 828.147 53.3923 820.955C61.7698 816.747 70.653 816.618 79.7356 818.253C78.9172 818.44 78.0917 818.607 77.2662 818.774C75.5063 819.13 73.7465 819.486 72.0549 820.042C57.9049 824.717 49.2608 834.966 44.0324 848.41C38.6354 862.29 38.3116 876.651 40.172 891.268C42.5144 909.745 48.6524 926.953 56.7133 943.56C64.1246 958.71 73.3357 972.911 84.147 985.855C94.1782 997.947 105.078 1009.18 117.867 1018.26C128.871 1026.09 140.169 1033.51 151.467 1040.92C155.302 1043.44 159.138 1045.96 162.962 1048.49C256.253 1110.35 349.55 1172.21 442.854 1234.05C509.301 1278.17 575.683 1322.38 642.002 1366.68L645.392 1368.93L653.247 1357.14L650.673 1355.42C508.553 1260.91 366.428 1166.4 224.298 1071.9C209.358 1061.96 194.335 1052.14 179.311 1042.32C164.568 1032.69 149.825 1023.05 135.161 1013.29C123.748 1005.7 113.614 996.473 104.214 986.472C87.0328 968.334 73.4261 947.118 64.1064 923.938C56.8399 905.823 52.4397 887.072 53.9164 867.442C54.9251 854.004 58.9558 841.414 68.4014 831.353C76.0142 823.253 85.3505 818.459 96.8886 819.19C99.6137 819.268 102.324 819.626 104.976 820.257C104.319 820.405 103.658 820.538 102.997 820.67C101.548 820.96 100.101 821.25 98.7056 821.706C87.2844 825.424 79.7825 833.47 74.7225 843.987C70.8967 851.929 69.135 860.44 68.8389 869.229C68.1611 889.56 73.608 908.487 81.9636 926.765C91.9525 948.588 105.93 967.509 123.177 984.101C133.355 993.889 144.827 1001.97 156.585 1009.73C239.848 1064.82 323.07 1119.97 406.251 1175.18C490.27 1230.98 574.232 1286.88 658.136 1342.87L661.282 1344.97L669.158 1333.14L666.621 1331.45C526.178 1237.97 385.73 1144.5 245.278 1051.03C231.45 1041.83 217.572 1032.69 203.694 1023.56C186.612 1012.32 169.531 1001.08 152.542 989.698C142.245 982.802 133.24 974.242 124.891 965.07C111.74 950.63 101.08 934.573 93.4262 916.532C86.7908 900.894 82.5547 884.742 83.3283 867.663C84.0158 852.705 88.3083 839.051 100.136 828.837C106.165 823.634 113.142 820.768 121.224 821.039C124.534 821.113 127.834 821.436 131.095 822.008C130.835 822.16 130.558 822.28 130.269 822.365C116.852 824.577 108.547 832.995 103.204 844.853C98.3361 855.661 97.3824 867.106 98.7613 878.696C101.676 903.184 112.112 924.519 126.926 943.931C138.969 959.69 153.488 972.645 169.911 983.552C305.756 1073.78 441.57 1164.05 577.352 1254.37C609.624 1275.83 641.872 1297.32 674.097 1318.84L677.276 1320.95L685.099 1309.2L682.52 1307.49L226.513 1003.96C220.709 1000.1 214.897 996.242 209.085 992.389C197.458 984.681 185.83 976.973 174.266 969.175C160.402 959.83 148.592 948.285 138.382 935.059C127.603 921.082 119.56 905.718 115.306 888.567C111.978 875.178 111.321 861.62 116 848.372C119.78 837.672 126.127 828.993 137.157 824.561C143.22 822.144 149.41 823.012 155.697 823.893C156.003 823.936 156.308 823.979 156.614 824.021C156.372 824.191 156.108 824.325 155.828 824.419C143.882 826.677 136.752 834.51 132.111 845.09C127.73 855.065 127.011 865.569 128.425 876.221C130.958 895.225 139.311 911.708 150.917 926.69C161.08 939.718 173.306 950.996 187.11 960.077C354.905 1071.74 522.711 1183.37 690.53 1294.99L693.371 1296.88L701.11 1285.26L411.438 1092.4C339.349 1044.41 267.269 996.395 195.197 948.367C177.44 936.505 162.595 921.641 152.269 902.755C144.441 888.441 140.421 873.144 142.973 856.748C144.615 846.079 148.916 836.64 157.808 829.892C162.436 826.375 167.647 824.546 173.534 824.933C176.803 825.086 180.063 825.404 183.3 825.886C182.579 826.125 181.849 826.347 181.12 826.569C179.49 827.066 177.86 827.563 176.315 828.246C169.454 831.284 164.881 836.719 161.898 843.355C154.519 859.785 156.237 876.06 163.599 891.999C169.415 904.608 178.082 915.223 188.644 924.068C197.06 931.084 205.854 937.634 214.985 943.69C378.094 1052.42 541.233 1161.08 704.401 1269.67L709.264 1272.91L717.068 1261.19L713.603 1258.88L445.317 1080.26C367.461 1028.39 289.642 976.472 211.858 924.501C198.584 915.623 187.129 904.653 179.029 890.707C170.297 875.656 168.942 859.792 175.902 843.758C179.621 835.204 185.728 828.348 195.648 827.17C200.397 826.609 205.315 827.132 210.151 827.646C210.73 827.708 211.308 827.769 211.884 827.829C214.85 828.141 217.742 828.952 220.437 830.228C226.327 833.019 230.172 838.029 233.327 843.546C240.438 856.029 243.126 869.79 244.774 883.832C246.436 898.026 246.404 912.264 245.744 926.509C245.636 928.704 246.238 930.025 248.137 931.29C406.379 1036.64 564.594 1142.03 722.78 1247.46L725.336 1249.16L866.086 1037.75C866.193 1037.94 866.432 1038.2 866.399 1038.3C866.147 1038.73 865.863 1039.14 865.577 1039.55C865.434 1039.76 865.29 1039.97 865.151 1040.17L529.414 1544.46L524.345 1541.08L61.8805 1233.19L101.23 1258.42C101.219 1258.43 101.209 1258.45 101.199 1258.47L529.163 1543.39L637.07 1381.31L218.541 1102.67C215.867 1100.09 195.168 1086.7 171.749 1071.55C144.275 1053.77 113.057 1033.57 102.809 1025.57ZM201.41 832.517C201.16 832.318 200.898 832.11 200.624 831.884L200.607 831.879C205.274 828.192 207.389 828.288 211.915 832.031C217.739 836.883 221.706 843.05 224.662 849.924C230.829 864.262 233.009 879.457 233.909 894.856C234.227 900.436 234.213 906.028 234.2 911.62C234.194 913.994 234.188 916.368 234.208 918.741C234.213 919.321 234.146 919.908 234.064 920.642C234.032 920.922 233.998 921.224 233.964 921.556C232.996 920.911 232.047 920.289 231.115 919.677C228.531 917.981 226.08 916.372 223.727 914.632C223.135 914.19 223.079 912.78 223.077 911.817C223.099 896.883 222.221 882.02 218.87 867.426C216.251 856.032 212.505 845.079 204.766 835.948C204.595 835.745 204.425 835.538 204.256 835.33C203.83 834.81 203.402 834.288 202.934 833.821C202.48 833.368 201.975 832.967 201.41 832.517ZM211.241 904.621L210.529 905.081L210.512 905.076C209.619 904.175 208.72 903.28 207.82 902.385C205.483 900.058 203.147 897.732 200.927 895.311C200.037 894.284 199.484 893.008 199.341 891.656C197.987 877.031 195.736 862.634 189.683 849.069C189.319 848.239 189.281 847.303 189.575 846.446C190.489 844.38 191.509 842.359 192.676 840.048C193.135 839.139 193.616 838.185 194.123 837.165C208.213 858.225 210.11 881.326 211.241 904.621Z" fill="white"/>
</g>
<path d="M1668.56 50.5625L1681.99 61.3902L1215.6 639.854C1215.6 639.854 1147.5 726.5 1138.5 736C1129.5 745.5 1123.5 727.004 1123.5 727.004L1150.03 693.694L1668.56 50.5625Z" fill="#ffffff"/>
<path d="M1695.42 72.2137L1708.85 83.0414L1167 754.5L1153.5 743.498L1695.42 72.2137Z" fill="#ffffff"/>
<path d="M1722.28 93.8711L1735.71 104.699C1735.71 104.699 1195.5 775.5 1192.5 778C1189.5 780.5 1179.5 765.999 1179.5 765.999L1722.28 93.8711Z" fill="#ffffff"/>
<path d="M1749.14 115.529L1762.57 126.357C1762.57 126.357 1222 797 1219.5 799C1217 801 1203.5 790.001 1205 789.001C1206.5 788 1749.14 115.529 1749.14 115.529Z" fill="#ffffff"/>
<path d="M1776 137.181L1789.43 148.008C1789.43 148.008 1247.5 821 1245 822.5C1242.5 824 1228.5 815 1230.5 812.5C1232.5 810 1776 137.181 1776 137.181Z" fill="#ffffff"/>
<path d="M1802.86 158.836L1816.29 169.664L1280 834.208C1280 834.208 1274 842.5 1271 845.5C1268 848.5 1258 833.5 1259 832.501C1260 831.501 1802.86 158.836 1802.86 158.836Z" fill="#ffffff"/>
<mask id="mask1_2473_21" style="mask-type:alpha" maskUnits="userSpaceOnUse" x="634" y="666" width="698" height="748">
<rect x="634.002" y="1195.23" width="679.061" height="348.354" transform="rotate(-51.1221 634.002 1195.23)" fill="#D9D9D9"/>
</mask>
<g mask="url(#mask1_2473_21)">
<path d="M501.566 1140.1L645.028 1263.21C646.01 1262.17 646.92 1261.28 647.742 1260.32C695.5 1204.77 743.466 1149.39 790.872 1093.53C805.288 1076.54 818.526 1058.52 831.677 1040.51C846.754 1019.86 861.308 998.869 875.73 977.769C889.367 957.864 902.293 937.461 915.898 917.503C934.879 889.654 953.893 861.807 973.467 834.362C983.768 819.949 995.523 806.542 1009.37 795.265C1017.87 788.305 1027.49 782.856 1037.83 779.155C1051.19 774.386 1065.04 775.067 1078.76 773.96C1079.3 773.91 1079.85 773.984 1080.36 774.175C1084.4 775.814 1086.53 773.64 1088.89 770.632C1103.21 752.413 1117.47 734.148 1132.22 716.276C1164.3 677.415 1196.81 638.898 1228.87 600.015C1252.42 571.465 1275.64 542.648 1298.82 513.797C1328.47 476.888 1357.91 439.819 1387.47 402.833C1409.42 375.372 1431.38 347.926 1453.36 320.493C1455.94 317.26 1458.47 313.989 1461.04 310.725L1474.44 322.217C1470.29 327.27 1466.09 332.277 1462.03 337.347C1432.78 373.887 1403.54 410.436 1374.32 446.992C1346.63 481.569 1319.04 516.235 1291.12 550.629C1256.83 592.888 1222.37 635.015 1187.75 677.011C1162.24 708.033 1136.12 738.564 1110.94 769.843C1092.27 792.991 1076.48 818.317 1063.9 845.266C1053.27 868.103 1044.94 891.691 1045.01 917.251C1045.05 932.608 1047.37 947.504 1062.96 956.853C1061.68 956.691 1061 956.757 1060.47 956.511C1057.64 955.234 1056.33 956.409 1054.96 958.989C1050.63 967.157 1045.97 975.137 1041.5 983.224C1014.79 1031.48 987.118 1079.15 956.145 1124.83C938.979 1150.17 921.111 1174.99 901.229 1198.28C855.566 1251.76 809.604 1304.99 763.767 1358.32L760.558 1362.06L773.096 1372.82L775.518 1370C819.271 1319.17 863.313 1268.61 906.62 1217.41C924.097 1196.74 940.512 1175.11 956.361 1153.16C969.885 1134.39 982.429 1114.87 994.507 1095.12C1010.26 1069.36 1025.3 1043.18 1040.32 1016.96C1050.73 998.75 1060.47 980.162 1070.6 961.804C1071.34 960.464 1072.83 959.553 1073.64 958.768C1071.49 956.258 1068.75 953.654 1066.7 950.548C1061.08 942.035 1059.88 932.25 1059.89 922.409C1059.9 905.691 1063.88 889.661 1069.61 874.044C1079.98 845.652 1095.24 819.848 1112.68 795.356C1122.52 781.543 1133.07 768.201 1143.87 755.113C1194.93 693.237 1246.29 631.617 1297.31 569.707C1319.45 542.826 1341.04 515.491 1362.84 488.322C1375.17 472.957 1387.43 457.537 1399.72 442.143C1417.09 420.355 1434.47 398.573 1451.84 376.798C1463.52 362.16 1475.18 347.513 1486.82 332.859L1500.21 344.351C1487.14 360.662 1474.07 376.972 1461.01 393.28C1443.82 414.79 1426.69 436.357 1409.49 457.86C1382.64 491.432 1355.83 525.046 1328.83 558.504C1304.01 589.25 1279.16 619.972 1253.98 650.422C1223.8 686.912 1193.27 723.106 1162.88 759.427C1144.79 781.058 1127.33 803.169 1112.36 827.171C1102.17 843.531 1093.09 860.474 1086.19 878.516C1080.16 894.262 1075.86 910.414 1075.66 927.356C1075.56 936.425 1076.57 945.539 1081.68 953.371C1084.13 957.138 1087.65 960.216 1090.19 963.025C1088.38 962.338 1087.15 963.697 1085.79 966.142C1066.97 1000.81 1048.58 1035.78 1028.86 1069.96C1013.21 1097.06 996.207 1123.4 979.221 1149.71C951.567 1192.54 918.087 1230.83 884.819 1269.28C852.406 1306.73 820.137 1344.31 787.81 1381.84C787.252 1382.49 786.749 1383.19 786.099 1384.02L1036.82 1599.18L1853.48 647.542C1853.57 647.766 1853.81 648.1 1853.74 648.199C1853.22 648.892 1852.63 649.54 1852.06 650.204L1036.77 1600.25L1033.7 1597.62C856.917 1445.91 680.13 1294.19 503.343 1142.48C502.667 1141.75 502.071 1140.95 501.566 1140.1V1140.1ZM1079.61 783.851C1073.48 784.202 1068.28 784.469 1063.1 784.805C1054.86 785.369 1047.15 788.015 1039.71 791.434C1025.14 798.098 1013.54 808.713 1003.59 820.865C991.475 835.666 979.717 850.844 968.858 866.579C952.172 890.739 936.498 915.588 920.189 940.012C898.511 972.489 876.862 1004.99 854.797 1037.2C833.746 1067.92 810.718 1097.16 786.392 1125.38C744.529 1173.94 702.684 1222.52 660.858 1271.12L658.18 1274.24L670.729 1285.01L673.168 1282.17C707.604 1242.15 741.748 1201.87 776.552 1162.17C815.78 1117.46 852.708 1070.97 885.637 1021.39C901.937 996.857 917.862 972.068 933.972 947.404C952.637 918.819 971.098 890.092 990.062 861.711C1001.85 844.056 1014.62 827.072 1030.53 812.778C1042.13 802.396 1055.27 795.252 1071.1 793.788C1072.05 793.715 1072.93 793.292 1073.59 792.602C1075.55 790.028 1077.28 787.277 1079.61 783.851V783.851ZM696.245 1306.94L698.688 1304.09C741.099 1254.85 783.513 1205.61 825.931 1156.38C853.071 1124.96 877.912 1091.79 901.07 1057.39C917.806 1032.49 933.895 1007.19 949.936 981.8C970.316 949.552 990.105 916.928 1010.61 884.754C1019.01 871.575 1028.48 859.057 1037.72 846.43C1044.6 837.034 1054.19 829.665 1058.44 818.267C1059.42 815.658 1061.25 813.376 1062.65 810.92C1063.31 809.766 1063.8 808.57 1064.79 806.622C1062.82 807.412 1061.71 807.78 1060.68 808.261C1050.55 813.183 1042.15 820.373 1034.62 828.595C1015.45 849.446 1000.22 873.19 985.013 896.918C970.344 919.804 956.366 943.137 941.505 965.893C918.673 1000.86 895.809 1035.82 872.053 1070.16C857.956 1090.54 842.92 1110.39 826.923 1129.3C780.52 1184.15 733.418 1238.4 686.589 1292.89L683.762 1296.18L696.245 1306.94ZM1033.98 876.921C1032.52 879.026 1031.41 880.478 1030.46 882.029C1014.58 907.755 998.55 933.381 982.934 959.236C956.157 1003.55 928.969 1047.57 899.185 1089.95C881.154 1115.62 862.153 1140.54 841.731 1164.33C798.559 1214.64 755.194 1264.78 711.909 1314.99L709.308 1318.02L721.782 1328.72C722.332 1328.16 722.732 1327.82 723.089 1327.39C775.202 1265.97 829.495 1206.41 879.854 1143.51C893.031 1127.06 905.213 1109.78 917.312 1092.5C927.911 1077.37 937.99 1061.86 947.88 1046.25C960.106 1026.98 971.981 1007.51 983.777 987.949C997.854 964.59 1011.65 941.062 1025.61 917.62C1027.77 913.983 1029.88 910.531 1029.87 905.93C1029.83 900.955 1030.72 895.992 1031.44 891.052C1032.05 886.561 1033.02 882.111 1033.98 876.921V876.921ZM1032.62 936.5C1032.5 936.644 1032.2 937.084 1031.94 937.539C1023.53 952.017 1015.15 966.509 1006.72 980.974C981.197 1024.77 955 1068.12 926.051 1109.77C907.05 1137.24 886.639 1163.71 864.897 1189.06C822.482 1238.29 780.103 1287.54 737.761 1336.83L734.998 1340.05L747.581 1350.85L750.084 1347.93C775.065 1318.89 800.194 1289.97 824.996 1260.77C856.057 1224.2 888.84 1189.04 917.157 1150.21C931.377 1130.72 945.332 1110.99 958.403 1090.72C974.538 1065.71 989.846 1040.19 1005.1 1014.58C1017.43 993.858 1029.12 972.748 1041 951.758C1041.22 951.231 1041.32 950.662 1041.29 950.092C1041.26 949.521 1041.11 948.964 1040.84 948.461C1038.25 944.45 1035.47 940.607 1032.62 936.5V936.5Z" fill="white"/>
<path d="M1605.25 434.522C1595.4 446.736 1585.55 458.89 1575.76 471.123C1558.07 493.223 1540.46 515.369 1522.78 537.464C1496.12 570.785 1469.52 604.143 1442.73 637.352C1418.26 667.683 1393.78 698.001 1368.96 728.039C1335.53 768.476 1301.72 808.6 1268.19 848.961C1258.53 860.591 1249.34 872.615 1239.8 884.36C1237.55 887.137 1237.36 889.488 1238.82 892.839C1245.75 908.847 1249.87 925.579 1249.44 943.187C1249.12 956.394 1246.24 968.91 1238.37 979.759C1233.76 986.136 1227.82 991.159 1219.46 991.807C1217.04 991.992 1214.51 991.378 1212.08 990.91C1208.46 990.209 1204.89 989.179 1201.24 988.493C1193.01 986.98 1188.77 981.496 1186.72 973.959C1183.65 962.708 1185.7 951.664 1189.11 940.896C1195.62 920.266 1206.54 901.884 1218.65 884.13C1240.61 851.943 1267.17 823.496 1291.91 793.562C1326.93 751.186 1361.86 708.737 1396.69 666.215C1418.94 639.001 1440.88 611.529 1462.9 584.124C1481.51 560.957 1500.07 537.756 1518.59 514.521C1539.78 487.987 1560.95 461.434 1582.1 434.862C1585.29 430.864 1588.59 426.969 1591.85 423.021L1605.25 434.522ZM1228.43 902.628L1227.36 902.608C1224.37 907.614 1221.35 912.614 1218.44 917.666C1218.06 918.321 1218.25 919.345 1218.28 920.19C1218.6 927.772 1219.59 935.399 1219.12 942.93C1218.34 954.952 1214.71 966.191 1206.44 975.429C1202.77 979.528 1202.75 980.137 1205.8 984.766C1207.34 987.109 1208.8 987.61 1211.39 986.277C1221.42 981.108 1226.89 972.297 1230.42 962.09C1234.82 949.499 1235.11 936.472 1233.06 923.451C1232 916.436 1230.02 909.556 1228.45 902.613L1228.43 902.628Z" fill="white"/>
<path d="M1526.48 366.929C1520.35 374.424 1514.16 381.858 1508.12 389.415C1488.8 413.546 1469.57 437.738 1450.25 461.869C1413.03 508.305 1376.02 554.963 1338.43 601.126C1296.03 653.196 1253.1 704.843 1210.36 756.638C1197.13 772.669 1183.49 788.366 1170.5 804.588C1152.1 827.554 1135.6 851.849 1122.93 878.516C1114.45 896.377 1107.74 914.864 1106.89 934.915C1106.51 943.778 1107.05 952.682 1111.9 960.451C1114.15 964.107 1117.52 967.057 1119.94 969.825C1107.06 970.191 1096.96 962.708 1093.12 949.62C1090.05 939.236 1090.37 928.732 1092.04 918.269C1096.02 893.557 1106.28 871.181 1118.49 849.595C1138.83 813.656 1165.59 782.585 1191.94 751.147C1224.32 712.53 1256.52 673.771 1288.55 634.87C1312.48 605.796 1336.03 576.406 1359.65 547.081C1379.86 521.999 1400 496.86 1420.07 471.662C1444.79 440.711 1469.5 409.746 1494.18 378.767C1500.43 370.948 1506.8 363.222 1513.11 355.454L1526.48 366.929Z" fill="white"/>
<path d="M1552.73 389.452C1546.5 397.024 1540.22 404.502 1534.11 412.147C1518.25 431.93 1502.48 451.789 1486.63 471.585C1449.9 517.461 1413.49 563.609 1376.3 609.108C1322.77 674.583 1268.72 739.625 1214.76 804.744C1198.84 823.942 1183.26 843.379 1169.91 864.444C1158.53 882.401 1148.52 901.066 1142.43 921.563C1139.19 932.484 1137.13 943.621 1138.55 955.04C1139.66 963.79 1142.44 971.809 1150.99 976.403C1139.68 978.073 1127.58 970.019 1124.29 958.896C1121.28 948.72 1121.54 938.448 1123.43 928.213C1127.9 904.118 1138.57 882.572 1151.01 861.739C1166.23 836.239 1184.7 813.147 1203.7 790.445C1232.98 755.47 1262.45 720.665 1291.51 685.511C1317.78 653.717 1343.68 621.604 1369.62 589.539C1390.29 563.985 1410.82 538.316 1431.35 512.648C1456.36 481.366 1481.34 450.062 1506.28 418.735C1516.2 406.312 1526.16 393.936 1536.07 381.523C1537.08 380.255 1537.94 378.864 1538.87 377.523L1552.73 389.452Z" fill="#white"/>
<path d="M1578.99 411.988C1572.38 420.093 1565.74 428.132 1559.22 436.278C1541.73 458.117 1524.28 479.977 1506.86 501.859C1484.92 529.322 1463.01 556.824 1440.99 584.229C1419.04 611.54 1397.17 638.942 1374.88 665.978C1331.04 719.137 1287.05 772.164 1242.9 825.06C1227.49 843.548 1212.32 862.207 1199.3 882.473C1188.69 898.972 1179.28 916.111 1173.55 935.028C1170.86 943.919 1169.1 953.018 1169.95 962.361C1170.73 970.914 1173.1 978.77 1181.21 983.652C1173.48 981.623 1164.8 982.249 1159.37 974.631C1155.91 969.774 1154.36 964.307 1153.79 958.525C1152.79 948.395 1154.49 938.509 1157.39 928.888C1163.99 906.92 1175.11 887.16 1187.68 868.134C1208.6 836.402 1234.32 808.524 1258.49 779.389C1294.89 735.486 1331.17 691.475 1367.31 647.354C1389.71 619.98 1411.77 592.327 1433.93 564.755C1452.05 542.186 1470.14 519.58 1488.17 496.935C1513.43 465.294 1538.67 433.644 1563.9 401.983C1564.35 401.368 1564.75 400.729 1565.12 400.069L1578.99 411.988Z" fill="#white"/>
</g>
<path d="M-105.1 86.1013L-5.18945 1.59375L30.6996 96.9536L103.64 253.226L222.5 425.829L350.488 577.145L502.602 732.925L703.63 939.585L798.617 1051.89L850.605 1142.22L872.349 1201.61L692.827 1353.46L695.14 1343.36L654.891 1250.33L524.479 1051.77L343.567 827.194L226.506 688.796L89.2001 490.643L24.1991 380.112L-42.7439 245.9L-105.1 86.1013Z" fill="#111111"/>
<mask id="mask2_2473_21" style="mask-type:alpha" maskUnits="userSpaceOnUse" x="-158" y="-6" width="1057" height="1365">
<path d="M682.811 1358.09C707.408 1281.25 400.573 904.877 252.082 728.154L39.1693 609.372L-157.292 130.461L3.9942 -5.96045L72.5697 75.1141L721.467 751.325L898.367 1186.12C807.81 1262.72 679.564 1368.23 682.811 1358.09Z" fill="#D9D9D9"/>
</mask>
<g mask="url(#mask2_2473_21)">
<path fill-rule="evenodd" clip-rule="evenodd" d="M638.525 1238.63C642.073 1244.68 645.609 1250.76 649.116 1256.82C648.568 1257.21 648.02 1257.6 647.472 1258C647.063 1257.62 646.65 1257.24 646.235 1256.85C646.004 1256.65 645.776 1256.45 645.552 1256.25C645.374 1256.09 645.196 1255.92 645.018 1255.76C644.572 1255.34 644.157 1254.94 643.774 1254.49C635.049 1245.09 626.273 1235.74 617.527 1226.4C616.863 1225.66 616.196 1224.94 615.526 1224.22C615.427 1224.12 615.329 1224.01 615.23 1223.91C615.073 1223.72 614.909 1223.53 614.738 1223.34C614.573 1223.17 614.399 1222.99 614.215 1222.81C603.322 1211.04 592.46 1199.27 581.752 1187.36C572.218 1176.72 562.817 1165.99 553.592 1155.1C528.324 1124.89 503.343 1094.51 478.649 1063.98C459.981 1040.68 441.465 1017.34 423.083 993.907C393.788 956.161 364.819 918.261 336.073 880.306C306.42 840.58 277.063 800.69 244.989 764.153C240.418 759.114 235.584 754.473 230.537 750.333C230 749.936 229.431 749.63 228.86 749.424C228.529 749.305 228.188 749.217 227.835 749.158C226.919 749.015 226.017 749.115 225.21 749.47C222.394 751.072 219.769 753.082 217.505 754.849C216.692 755.456 215.93 756.065 215.221 756.574C218.067 759.753 220.957 762.813 223.807 765.841C229.912 772.28 235.929 778.636 241.251 785.744C242.42 787.308 243.596 788.868 244.779 790.425C244.832 790.5 244.88 790.569 244.926 790.631C259.737 810.301 274.63 829.933 289.552 849.626C307.4 872.985 325.277 896.406 342.937 920.003C380.814 969.866 419.024 1019.7 457.745 1069.28C495.261 1116.42 533.287 1163.31 572.052 1209.76C601.873 1244.91 633.239 1278.84 668.342 1308.98C673.047 1312.65 676.443 1317.85 677.915 1323.62C678.99 1327.76 680.137 1331.89 681.304 1336.01C681.639 1337.22 681.985 1338.43 682.341 1339.64C682.844 1341.45 683.351 1343.27 683.86 1345.1C683.526 1345.3 683.187 1345.52 682.845 1345.75C682.585 1345.91 682.322 1346.07 682.055 1346.25C679.907 1344.76 677.707 1343.33 675.527 1341.88C674.505 1341.2 673.484 1340.51 672.462 1339.83C670.69 1338.66 668.929 1337.47 667.2 1336.24C665.271 1334.85 663.375 1333.42 661.52 1331.92C629.22 1305.5 600.559 1275.2 573.741 1243.41C497.943 1151.27 425.014 1057.43 353.215 963.288C329.031 930.775 304.826 898.373 280.731 865.994C264.931 844.492 249.162 823 233.515 801.451C226.966 792.374 219.456 784.224 212.024 776.137C210.731 774.698 209.433 773.27 208.132 771.851C205.943 769.536 201.725 767.103 200.034 768.074C195.21 770.821 191.105 775.203 186.909 779.178C186.423 779.631 186.799 781.702 187.073 782.971C187.638 786.027 188.476 789.078 189.54 792.024C190.659 794.718 191.779 797.413 192.878 800.117C193.573 801.804 194.261 803.494 194.942 805.188C196.472 808.929 198.004 812.678 199.54 816.433C207.614 836.38 215.699 856.298 224.9 875.564C251.198 930.431 281.112 982.796 312.857 1033.8C363.793 1114.3 416.307 1193.8 469.69 1272.92C478.574 1285.89 487.56 1298.82 496.577 1311.7C500.248 1316.91 503.916 1322.14 507.58 1327.37C548.643 1384.9 590.359 1442.12 628.717 1502.07C641.527 1521.73 654.326 1541.48 661.698 1564.18C663.614 1569.99 664.998 1575.21 657.936 1580.26C678.737 1574.58 684.501 1561.47 676.47 1541.46C675.792 1539.75 675.041 1538.16 674.148 1536.58C672.251 1533.4 670.407 1530.18 668.552 1526.93C667.608 1525.24 666.657 1523.56 665.699 1521.88C664.852 1520.37 664.008 1518.86 663.167 1517.36C660.596 1512.75 658.016 1508.12 655.404 1503.58C654.025 1501.18 652.645 1498.79 651.236 1496.38C646.88 1489.04 642.37 1481.8 637.468 1474.89C622.082 1453 606.654 1431.17 591.205 1409.4C570.302 1379.66 549.337 1350.01 528.279 1320.47C507.255 1290.74 486.199 1261.05 465.317 1231.3C464.965 1230.8 464.616 1230.31 464.27 1229.82C410.084 1151.33 356.88 1072.37 307.377 990.676C275.072 936.417 244.06 881.297 218.324 822.694C215.955 817.241 213.74 811.692 211.514 806.172C210.992 804.886 210.473 803.59 209.958 802.285C209.575 801.366 209.196 800.437 208.82 799.499C209.17 799.217 209.527 798.933 209.891 798.645C211.317 800.504 212.752 802.367 214.197 804.233C214.432 804.556 214.684 804.878 214.953 805.201C216.45 807.143 217.955 809.081 219.466 811.017C221.771 814.002 224.066 817.017 226.299 820.06C226.658 820.54 227.018 821.02 227.377 821.5C227.828 822.104 228.288 822.711 228.759 823.322C229.828 824.741 230.906 826.181 231.995 827.592C237.36 834.579 242.755 841.578 247.142 849.301C257.57 867.565 266.474 886.996 276.695 905.457C315.815 975.613 358.647 1043.05 403.215 1109.29C412.565 1123.04 421.967 1136.74 431.4 1150.45C437.774 1159.64 444.149 1168.82 450.524 1178C465.84 1199.86 481.238 1221.68 496.717 1243.45C529.528 1289.08 562.697 1334.52 596.048 1379.92C626.761 1421.05 657.356 1462.45 682.528 1507.56C682.838 1508.11 683.149 1508.67 683.459 1509.22C687.05 1515.57 690.7 1521.99 693.298 1528.88C695.946 1535.83 697.59 1543.3 697.132 1551.65C701.58 1548.16 705.26 1545.05 709.196 1542.27C714.941 1538.19 716.262 1532.73 714.175 1526.44C712.021 1519.59 709.478 1512.92 706.538 1506.41C692.442 1476.44 673.775 1449.22 654.066 1422.92C619.562 1376.24 584.881 1329.76 550.618 1283.12C550.513 1283 550.415 1282.88 550.324 1282.76C549.847 1282.1 549.371 1281.44 548.894 1280.79C541.753 1270.96 534.625 1261.13 527.511 1251.3C469.362 1169.8 412.349 1087.75 356.449 1005.19C353.315 1000.5 350.365 995.674 347.436 990.835C347.041 990.172 346.642 989.519 346.239 988.877C345.227 987.205 344.204 985.565 343.172 983.903C345.06 984.837 346.742 986.392 347.939 988.35C365.439 1012.35 383.02 1036.31 400.734 1060.18C423.502 1090.54 446.485 1120.77 469.663 1150.88C480.986 1165.43 492.474 1179.84 504.023 1194.23C504.049 1194.29 504.081 1194.34 504.12 1194.39C527.037 1222.73 550.116 1250.99 572.422 1279.94C618.004 1338.26 663.907 1396.68 703.935 1459.54C704.8 1460.88 705.658 1462.22 706.509 1463.57C706.548 1463.62 706.58 1463.67 706.606 1463.72C712.341 1472.61 718.175 1481.6 722.712 1491.13C725.015 1495.96 727.009 1500.99 728.505 1506.18C730.092 1511.77 731.129 1517.58 731.349 1523.72C750.263 1511.01 751.205 1508.77 745.059 1489.36C744.31 1487.25 743.429 1485.16 742.394 1483.18C728.02 1452.56 708.211 1425.36 688.534 1398.06C686.497 1395.28 684.481 1392.48 682.403 1389.71C681.019 1387.84 679.634 1385.96 678.249 1384.08C676.29 1381.44 674.33 1378.8 672.371 1376.16C668.176 1370.54 663.953 1364.86 659.672 1359.06C661.791 1359.64 663.863 1360.49 665.896 1361.3C672.334 1363.89 678.392 1366.3 684.148 1359.6C684.866 1360.01 685.541 1360.54 686.144 1361.13C709.108 1391.32 732.019 1421.61 750.628 1454.75C757.896 1467.68 765.755 1480.81 763.79 1497.85C765.026 1496.87 766.129 1495.92 767.211 1495.04C769.326 1493.22 771.223 1491.62 773.354 1490.37C782.131 1484.99 783.769 1477.17 779.725 1468.59C771.855 1452.04 764.571 1435.04 754.579 1419.77C738.879 1395.77 721.227 1373.1 704.491 1349.71C703.963 1348.96 703.327 1348.09 702.862 1347.21C702.736 1346.99 702.6 1346.76 702.514 1346.52C702.236 1345.88 702.08 1345.23 702.154 1344.64C704.212 1329.66 699.182 1315.7 694.127 1301.95C683.764 1274.01 670.337 1247.42 655.615 1221.37C629.995 1175.95 600.596 1133.1 569.594 1091.42C510.47 1010.55 446.787 934.539 382.493 859.985C363.328 837.222 344.192 814.469 325.199 791.699C310.682 774.138 296.247 756.538 281.873 738.91C281.715 738.717 281.561 738.532 281.411 738.353C254.932 705.474 228.73 672.439 202.948 639.131C143.714 560.844 87.3318 480.34 38.3054 392.55C10.6889 342.2 -14.7748 290.111 -38.0455 236.739C-57.9701 191.107 -76.0768 144.668 -91.8066 97.2838C-102.112 66.45 -111.454 35.4871 -117.782 4.40273C-120.924 -10.7498 -123.445 -25.696 -122.744 -39.2629C-122.279 -49.197 -120.087 -50.0047 -114.018 -44.1728C-113.692 -42.1539 -113.354 -40.1651 -113.057 -38.157C-112.563 -35.0933 -112.099 -32.0404 -111.644 -29.0078C-111.353 -27.0471 -111.062 -25.0863 -110.771 -23.1256C-110.433 -20.7123 -110.045 -18.2979 -109.687 -15.8942C-109.475 -14.5956 -109.272 -13.3174 -109.049 -12.0488C-108.652 -9.56343 -108.215 -7.09726 -107.768 -4.61071C-107.316 -2.32611 -106.864 -0.0415607 -106.372 2.27422C-95.9975 51.7564 -78.9348 100.485 -60.4774 148.782C-40.6234 200.891 -18.1919 251.686 6.08156 301.514C40.8702 372.336 80.0859 439.249 123.062 503.117C174.219 577.142 229.372 647.137 285.873 716.496C289.989 721.45 294.104 726.404 298.22 731.358C298.928 732.19 299.63 733.025 300.324 733.863C362.33 806.848 425.899 879.121 487.693 954.254C552.635 1030.87 615.703 1109.45 667.686 1197C688.704 1232.18 707.527 1268.31 718.614 1307.65C721.001 1316.21 722.77 1325.27 717.081 1333.44C718.018 1334.85 718.994 1336.34 720.011 1337.81C726.095 1346.43 732.241 1355.02 738.368 1363.57C738.531 1363.81 738.698 1364.04 738.868 1364.26C745.865 1374.03 752.864 1383.79 759.81 1393.61C767.098 1403.93 774.304 1414.3 781.326 1424.75C785.321 1430.69 789.158 1436.87 792.005 1443.5C793.204 1446.25 794.239 1449.09 795.04 1452.01C796.677 1458.08 797.386 1464.51 796.616 1471.52C798.028 1470.33 799.437 1469.29 800.835 1468.28C803.921 1465.98 806.719 1463.86 808.813 1461.2C810.314 1459.25 811.763 1456.92 812.74 1454.48C813.544 1452.53 814.036 1450.5 813.959 1448.59C813.69 1442.82 812.003 1437.17 809.028 1432.13C796.507 1410.91 783.998 1389.6 770.185 1369.14C758.953 1352.45 745.988 1336.81 733.517 1320.35C743.29 1313.85 741.005 1303.54 738.417 1294.92C733.145 1277.05 726.592 1259.48 718.877 1242.36C701.46 1204.44 679.718 1168.68 656.007 1134.15C614.587 1073.32 568.894 1016.3 521.557 960.877C452.037 877.297 380.153 797.552 310.201 716.873C310.169 716.838 310.143 716.8 310.123 716.759C306.549 712.566 302.989 708.366 299.442 704.159C239.578 632.064 181.227 559.255 127.472 481.784C80.6204 412.499 38.6816 338.427 1.87591 260.938C-18.1928 218.445 -36.5809 174.961 -53.2857 130.809C-68.2292 91.2961 -81.9343 51.5496 -91.7568 11.2976C-95.3211 -3.1069 -97.9066 -17.448 -101.197 -32.7557C-91.8732 -24.7859 -84.8484 -17.0315 -83.628 -3.09621C-83.435 -1.83847 -83.111 -0.56758 -82.7161 0.694852C-72.8115 41.7573 -58.963 82.2854 -43.6235 122.586C-14.0146 200.543 21.3301 275.249 60.8992 347.366C91.9838 403.275 126.561 455.89 163.1 506.782C211.518 572.607 263.165 635.162 315.937 697.188C323.502 705.928 331.096 714.663 338.722 723.391C409.885 803.25 482.875 882.374 552.756 966.084C607.006 1029.29 659.137 1094.51 702.942 1166.13C725.045 1202.02 744.982 1238.93 756.033 1279.35C758.739 1289.39 760.364 1299.89 749.848 1306.57C749.787 1306.6 749.735 1306.64 749.684 1306.69C749.621 1306.77 749.572 1306.85 749.537 1306.91C749.453 1307.05 749.378 1307.21 749.323 1307.41C749.301 1307.47 749.287 1307.53 749.279 1307.58C749.181 1307.85 749.094 1308.15 748.965 1308.46C750.154 1310.06 751.346 1311.67 752.541 1313.29C752.809 1313.65 753.077 1314 753.345 1314.36C753.808 1314.99 754.279 1315.62 754.756 1316.24C757.028 1319.37 759.331 1322.45 761.673 1325.57C764.274 1329.04 766.868 1332.51 769.454 1335.99C769.481 1336.01 769.511 1336.04 769.543 1336.07C782.236 1353 794.969 1369.9 806.902 1387.33C818.572 1404.31 830.482 1421.85 829.586 1444.17C833.681 1441.52 837.884 1438.99 840.581 1435.6C841.684 1434.23 842.518 1432.71 843.023 1430.97C843.341 1429.9 843.531 1428.71 843.521 1427.42C843.522 1426.94 843.494 1426.41 843.455 1425.9C843.407 1425.37 843.328 1424.84 843.22 1424.29C842.698 1421.54 842.004 1418.79 841.178 1416.09C840.042 1412.4 838.63 1408.82 836.963 1405.33C823.981 1378.31 805.75 1354.46 787.468 1330.65C783.554 1325.58 779.598 1320.57 775.612 1315.56C771.027 1309.8 766.412 1304.03 761.779 1298.12C765.039 1295.29 767.68 1292.57 770.723 1290.39C771.134 1290.1 771.525 1289.81 771.926 1289.5C772.215 1289.26 772.514 1289 772.772 1288.75C773.702 1287.91 774.45 1287.01 775.09 1286.03C775.825 1284.84 776.331 1283.53 776.536 1282.11C776.675 1281.34 776.683 1280.56 776.672 1279.74C776.629 1278.96 776.506 1278.17 776.334 1277.33C774.052 1266.87 772.666 1256.13 769.092 1246C756.939 1211.67 739.142 1179.62 719.555 1148.54C687.45 1097.36 650.913 1049.43 612.367 1003.13C560.663 939.981 506.617 879.705 451.644 821.064C433.37 801.202 415.187 781.372 397.095 761.524C379.058 741.526 361.102 721.489 343.289 701.385C342.902 700.951 342.518 700.507 342.138 700.054C313.188 666.965 284.574 633.742 256.424 600.177C203.979 536.249 153.742 470.432 108.465 399.506C72.702 342.255 40.3446 282 11.4723 219.655C-17.0595 157.872 -42.6059 95.0586 -62.2032 30.2412C-63.1123 27.1981 -64.0023 24.1958 -64.8598 21.1033C-65.5691 18.5904 -66.2568 16.0173 -66.9939 13.3926C-67.006 13.3316 -67.0148 13.2775 -67.0204 13.2302C-67.8225 10.3614 -68.6222 7.39162 -69.5002 4.30877C-67.8039 6.10699 -66.2375 7.84152 -64.7697 9.47268C-61.7248 12.8083 -59.0251 15.7821 -56.2439 18.293C-53.4722 20.7834 -52.2602 23.4092 -51.0476 27.3084C-38.7419 67.6892 -23.8139 107.434 -7.29992 146.781C9.7112 187.343 28.1735 227.221 48.1336 266.143C70.3058 309.443 94.2656 351.501 119.97 392.013C161.116 455.445 206.188 514.854 253.503 572.083C284.749 608.985 316.499 645.525 348.677 681.863C391.277 728.976 434.571 775.761 478.229 822.575C544.015 891.232 608.443 962.201 667.76 1038.65C713.326 1096.35 755.343 1156.28 783.514 1223.97C789.874 1239.43 795.993 1255.23 793.046 1272.78C795.147 1271.09 796.945 1269.39 798.718 1267.91C800.109 1266.78 801.468 1265.74 802.962 1264.94C814.438 1258.66 814.034 1247.41 810.811 1237.01C809.178 1231.64 807.423 1226.27 805.567 1220.95C803.462 1215 801.216 1209.07 798.826 1203.2C796.14 1196.65 793.27 1190.13 790.237 1183.69C766.397 1134.79 735.606 1089.68 702.073 1046.39C658.375 989.201 610.966 935.538 562.34 883.373C497.78 812.441 431.738 744.354 367.259 675.556C364.71 672.795 362.16 670.034 359.61 667.272C358.132 665.654 356.654 664.036 355.176 662.418C291.661 591.743 229.791 520.267 172.971 443.341C130.44 384.234 91.8945 321.075 57.5613 254.984C36.2617 213.695 16.6753 171.325 -1.20635 128.226C-15.2793 94.2725 -28.1716 59.9622 -39.0631 25.2337C-39.3064 24.3993 -39.5219 23.6767 -39.6581 23.0166C-39.9412 21.7264 -40.0186 20.7139 -39.8891 19.9286C-39.6888 18.7104 -39.0241 17.9477 -37.9061 17.2462C-37.3627 16.9153 -36.7664 16.4846 -36.2388 15.9612C-35.8673 15.6364 -35.5248 15.2502 -35.2123 14.8533C-34.4095 13.8007 -33.8846 12.5295 -34.0342 11.1515C-34.8474 4.86632 -36.4832 -1.68062 -38.8586 -8.15389C-44.5133 -23.4966 -51.1274 -38.4373 -58.315 -53.0579C-62.8488 -62.3104 -67.6074 -71.457 -72.5006 -80.4652C-96.873 -125.626 -121.289 -170.666 -145.727 -215.595C-148.898 -221.477 -152.079 -227.363 -155.269 -233.252C-159.964 -241.98 -164.655 -250.7 -169.343 -259.414C-169.42 -259.578 -169.5 -259.731 -169.584 -259.874C-206.372 -329.056 -242.69 -398.458 -277.316 -469.307C-297.92 -511.822 -318.186 -554.522 -337.084 -598.24C-351.62 -631.427 -365.764 -664.473 -375.053 -697.284C-375.184 -697.721 -375.446 -698.223 -375.774 -698.867C-375.851 -699.031 -375.935 -699.191 -376.026 -699.348C-376.071 -699.443 -376.116 -699.539 -376.161 -699.634C-376.257 -699.839 -376.353 -700.043 -376.449 -700.247C-378.738 -699.169 -381.064 -698.273 -383.168 -696.908C-383.291 -696.799 -383.375 -696.66 -383.431 -696.459C-383.517 -696.218 -383.575 -695.916 -383.603 -695.553C-383.608 -694.927 -383.515 -694.146 -383.303 -693.272C-381.359 -687.395 -379.535 -681.511 -377.632 -675.615C-375.992 -670.543 -374.301 -665.471 -372.42 -660.363C-359.174 -623.023 -343.195 -586.296 -326.534 -550.189C-323.303 -543.17 -320.071 -536.151 -316.819 -529.142C-313.952 -522.951 -311.064 -516.768 -308.186 -510.607C-306.06 -506.039 -303.933 -501.472 -301.816 -496.925C-298.397 -489.669 -294.97 -482.393 -291.551 -475.138C-280.725 -452.316 -269.785 -429.624 -258.659 -407.068C-238.477 -366.402 -217.79 -326.149 -196.939 -285.973C-196.824 -285.727 -196.701 -285.485 -196.572 -285.247C-191.762 -276.025 -186.941 -266.799 -182.11 -257.57C-179.871 -253.313 -177.637 -249.046 -175.405 -244.77C-173.076 -240.356 -170.754 -235.939 -168.438 -231.519C-153.826 -203.788 -139.152 -176.086 -124.396 -148.423C-117.966 -136.401 -111.52 -124.378 -105.056 -112.355C-99.7933 -102.597 -94.5233 -92.842 -89.2466 -83.0903C-86.3017 -77.6346 -83.6045 -71.9624 -80.4657 -65.724C-91.8792 -69.9122 -100.152 -68.3875 -103.14 -62.0599C-80.6706 -55.6625 -58.8446 -31.7048 -49.0293 5.8284C-49.7656 5.04307 -50.5055 4.26778 -51.2489 3.5025C-51.8673 2.8614 -52.4789 2.21715 -53.0836 1.56968C-54.129 0.463799 -55.1252 -0.590376 -56.0996 -1.70467C-66.5618 -13.7336 -76.839 -26.3243 -87.3129 -37.8483C-101.696 -53.7993 -115.007 -61.5389 -125.038 -50.0699C-125.473 -49.6152 -125.977 -49.2531 -126.528 -49.0436C-131.7 -46.9815 -133.341 -40.3393 -133.581 -31.7846C-133.734 -26.5428 -133.447 -21.1089 -132.859 -15.5668C-132.463 -11.7574 -131.917 -7.89399 -131.27 -3.97774C-130.34 1.60271 -129.209 7.28883 -127.998 12.987C-119.003 55.7766 -105.092 97.9232 -90.1133 139.842C-67.478 203.103 -41.0256 264.342 -12.2385 324.28C20.2734 391.33 56.6115 455.103 96.2048 516.245C143.826 588.064 195.098 656.29 247.495 723.987C247.887 724.501 248.276 725.009 248.662 725.51C249.231 726.258 249.803 727.012 250.378 727.773C250.862 728.411 251.349 729.056 251.839 729.708C248.163 732.472 244.48 735.239 240.79 738.01C249.606 747.393 258.563 755.91 266.686 765.57C309.162 815.337 348.621 868.825 389.222 921.449C448.092 995.887 508.165 1069.81 569.362 1143.25C572.116 1146.5 574.922 1149.69 577.779 1152.84C579.719 1155 581.671 1157.13 583.611 1159.29C587.07 1163.08 590.549 1166.86 593.936 1170.71C596.517 1173.59 599.036 1176.49 601.483 1179.46C603.302 1181.63 605.06 1183.82 606.757 1186.04C608.59 1188.45 610.402 1190.92 612.133 1193.43C614.821 1197.33 617.374 1201.37 619.67 1205.61C625.757 1216.73 632.121 1227.69 638.525 1238.63ZM-356.458 -698.527C-357.42 -701.47 -358.41 -704.525 -359.458 -707.703C-359.887 -707.484 -360.32 -707.272 -360.756 -707.066C-361.104 -706.886 -361.455 -706.712 -361.809 -706.545C-362.617 -706.14 -363.395 -705.723 -364.222 -705.358C-364.835 -705.07 -365.458 -704.801 -366.09 -704.553C-367.364 -704.128 -367.368 -702.653 -366.349 -699.112C-359.795 -675.976 -350.331 -652.388 -340.203 -628.663C-324.214 -590.642 -307.043 -553.028 -288.809 -516.339C-282.255 -503.168 -275.71 -490.018 -269.135 -476.857C-260.657 -459.922 -252.159 -442.997 -243.609 -426.121C-234.643 -408.468 -225.655 -390.874 -216.586 -373.319C-208.763 -358.198 -200.889 -343.127 -192.973 -328.075C-169.665 -284.112 -145.945 -240.443 -122.03 -196.89C-121.144 -195.292 -120.268 -193.699 -119.403 -192.108C-115.517 -185.098 -111.632 -178.087 -107.746 -171.077C-102.17 -161.042 -96.5724 -151.017 -90.9861 -140.961C-82.6043 -125.979 -74.2128 -110.977 -65.8213 -95.9744C-58.6622 -83.1636 -51.6989 -70.1856 -45.2178 -56.9055C-41.7732 -49.912 -38.4825 -42.821 -35.3457 -35.6326C-32.1427 -28.2506 -29.0635 -20.7603 -26.2596 -13.1653C-20.812 1.52575 -21.0191 6.49339 -28.39 10.5153C-30.6117 11.7368 -31.1604 13.5937 -29.6049 17.9557C-26.9382 25.3656 -24.3436 32.8344 -21.7587 40.2829C-16.5815 55.3011 -11.4248 70.329 -5.71853 85.1979C14.2294 137.613 37.6699 188.482 63.135 238.347C101.93 313.75 146.329 384.191 195.788 450.424C242.002 510.669 291.411 567.411 341.831 623.701C347.513 629.932 353.203 636.159 358.899 642.383C400.026 686.743 441.808 730.794 483.942 774.904C494.116 785.421 504.311 795.927 514.515 806.455C527.257 819.507 539.989 832.59 552.762 845.653C612.447 905.92 669.519 969.491 721.728 1037.85C757.083 1083.58 789.661 1130.94 813.219 1183.28C813.257 1183.4 813.305 1183.52 813.362 1183.64C821.969 1202.86 830.652 1222.25 828.636 1244.47C830.17 1243.14 831.704 1241.8 833.238 1240.46C833.533 1240.2 833.829 1239.95 834.125 1239.69C836.044 1238 837.96 1236.33 839.872 1234.66C841.513 1233.21 843.082 1231.77 844.652 1230.34C845.764 1229.46 846.471 1228.2 846.656 1226.74C846.537 1224.95 846.519 1223.11 846.481 1221.28C846.478 1220.85 846.467 1220.42 846.45 1220C846.435 1219.22 846.416 1218.46 846.393 1217.7C846.378 1216.61 846.322 1215.54 846.226 1214.48C846.008 1211.69 845.556 1208.98 844.656 1206.38C842.017 1198.66 839.348 1190.93 836.455 1183.25C832.999 1174.16 829.268 1165.13 824.966 1156.37C807.135 1120.16 785.073 1086 760.846 1053.19C727.791 1008.1 691.816 965.505 654.503 924.418C592.825 855.575 528.364 790.79 464.317 726.409C440.454 701.837 416.607 677.408 392.956 652.862C337.423 593.935 283.116 534.431 231.837 471.702C172.661 396.985 119.358 317.452 74.0394 230.163C43.5185 170.891 15.9855 110.487 -6.50405 47.9062C-8.66753 41.8826 -10.7601 35.8505 -12.843 29.8389C-15.4822 22.1163 -18.0612 14.4154 -20.6811 6.73377C-20.0448 6.31745 -19.4153 5.90429 -18.7925 5.49434C-17.1159 4.38811 -15.4461 3.28514 -13.7831 2.18533C-12.8663 1.58687 -11.9494 0.988475 -11.0325 0.390027C-10.144 3.01832 -9.55998 4.84109 -8.90504 6.65539C-6.56943 13.0974 -4.28434 19.5382 -2.01967 25.9887C3.13571 40.6426 8.27067 55.3061 13.9238 69.8503C22.7853 92.8481 32.4018 115.54 42.5894 138.013C51.5673 157.759 60.9636 177.333 70.7278 196.733C94.0402 243.143 119.547 288.218 147.125 331.544C182.749 386.538 221.583 438.646 263.492 487.208C330.977 563.131 401.055 637.133 472.752 710.597C542.907 779.992 613.877 849.528 680.815 924.659C740.259 990.085 796.662 1058.02 837.581 1136.39C847.513 1155.51 854.638 1175.88 861.808 1195.98C863.448 1200.63 863.198 1205.71 862.966 1210.42C862.935 1211.17 862.898 1211.92 862.853 1212.67C862.814 1213.91 862.756 1215.11 862.799 1216.27C863.614 1215.56 864.477 1214.95 865.379 1214.43C877.371 1207.7 880.764 1196.61 876.064 1183.19C875.963 1182.91 875.859 1182.62 875.751 1182.32C874.492 1178.69 873.242 1175.08 871.942 1171.48C870.207 1166.57 868.401 1161.68 866.544 1156.84C865.849 1154.99 865.104 1153.14 864.389 1151.31C863.644 1149.46 862.908 1147.63 862.113 1145.79C859.565 1139.74 856.845 1133.76 853.839 1127.91C829.677 1080.65 798.739 1037.08 764.987 995.393C709.758 926.508 649.702 862.645 586.975 802.338C526.526 742.73 466.46 683.617 407.569 623.924C397.188 613.197 386.831 602.451 376.497 591.685C376.484 591.658 376.465 591.634 376.438 591.613C376.432 591.599 376.415 591.582 376.389 591.561C376.376 591.534 376.356 591.51 376.33 591.489C376.31 591.482 376.294 591.465 376.281 591.438C376.268 591.41 376.255 591.383 376.242 591.356C323.6 535.438 272.081 479.041 224.127 418.442C193.057 378.36 163.711 336.692 136.797 292.604C113.764 254.58 92.233 215.398 72.2807 175.273C50.6819 131.653 30.8998 87.277 14.2353 41.8319C8.47468 26.2643 3.08922 10.645 -2.73782 -5.54064C-4.7936 -4.3557 -6.84258 -3.17403 -8.8847 -1.99545C-10.9935 -9.49339 -12.5094 -16.846 -15.2132 -23.9637C-24.9403 -49.2758 -37.2595 -73.5166 -50.4862 -96.9802C-74.9494 -140.849 -99.4968 -184.578 -124.098 -228.157C-130.938 -240.344 -137.768 -252.561 -144.588 -264.758C-144.593 -264.805 -144.613 -264.846 -144.645 -264.88C-189.797 -346.779 -234.204 -429.004 -276.039 -513.564C-293.706 -549.421 -310.952 -585.552 -327.081 -622.333C-335.682 -641.757 -343.966 -661.355 -350.616 -680.825C-352.633 -686.643 -354.469 -692.396 -356.458 -698.527ZM-342.449 -714.168C-340.193 -706.889 -338.372 -700.479 -336.151 -693.908C-327.949 -669.501 -317.294 -644.976 -306.032 -620.487C-284.638 -573.698 -261.56 -528.103 -237.958 -482.829C-201.313 -413.156 -162.976 -344.98 -124.128 -277.044C-121 -271.641 -117.871 -266.239 -114.743 -260.836C-111.816 -255.788 -108.889 -250.741 -105.961 -245.693C-99.9177 -235.303 -93.8647 -224.894 -87.8116 -214.484C-85.6167 -210.673 -83.408 -206.868 -81.1858 -203.07C-75.5888 -193.469 -70.0123 -183.859 -64.4262 -174.228C-51.8135 -152.598 -39.2116 -130.938 -26.641 -109.238C-12.9597 -85.7637 -0.16673 -61.4714 9.41369 -35.9403C10.3925 -33.2796 11.138 -30.5839 11.7825 -27.8905C12.1957 -26.1122 12.568 -24.3147 12.9308 -22.5375C12.9492 -22.463 12.9709 -22.3817 12.9958 -22.2935C13.0142 -22.2189 13.0327 -22.1444 13.0512 -22.0698C13.3235 -20.7496 13.5862 -19.4498 13.8694 -18.1596C14.0971 -17.0931 13.4831 -15.9047 12.8761 -15.4439C12.17 -14.9282 11.4708 -14.4156 10.7783 -13.9063C9.05087 -12.6429 7.29455 -11.4408 5.48652 -10.1894C4.4663 -9.49234 3.44927 -8.78847 2.43548 -8.07775C-2.81711 -36.2971 -16.5076 -61.5401 -30.0116 -86.5465C-30.2506 -86.9833 -30.4861 -87.4301 -30.718 -87.8869C-55.9305 -134.724 -82.5601 -180.17 -108.954 -225.752C-120.666 -246.158 -132.327 -266.563 -143.822 -287.146C-162.675 -321.121 -181.404 -355.204 -199.959 -389.394C-204.676 -398.135 -209.383 -406.907 -214.09 -415.678C-216.827 -420.782 -219.561 -425.896 -222.291 -431.02C-227.18 -440.23 -232.078 -449.461 -236.946 -458.681C-240.739 -465.885 -244.533 -473.088 -248.315 -480.322C-271.155 -524.032 -293.033 -568.669 -313.518 -614.112C-324.659 -638.609 -335.314 -663.134 -343.743 -687.759C-346.593 -695.982 -348.441 -701.23 -349.278 -704.756C-349.7 -706.606 -349.85 -707.984 -349.724 -709.042C-349.584 -710.282 -349.029 -711.118 -348.073 -711.793C-347.558 -712.185 -346.893 -712.523 -346.107 -712.869C-345.494 -713.157 -344.821 -713.425 -344.045 -713.74C-343.647 -713.903 -343.19 -713.993 -342.449 -714.168ZM24.372 -29.476C24.5069 -28.9069 24.6351 -28.3346 24.7564 -27.759C25.1334 -26.1635 25.49 -24.5583 25.908 -22.982C26.6469 -23.4633 27.3858 -23.9446 28.1248 -24.426C28.1384 -24.4324 28.1588 -24.442 28.1861 -24.4548C30.4125 -25.8784 32.8241 -27.439 35.0996 -29.2353C36.0878 -30.0006 37.2656 -31.5294 36.9498 -33.1539C36.8775 -33.5194 36.8052 -33.8849 36.7329 -34.2505C35.5917 -39.9066 34.4036 -45.7153 32.221 -51.3553C21.9548 -77.812 8.15854 -102.855 -6.45503 -127.089C-34.4223 -173.678 -62.4232 -220.126 -90.3964 -266.462C-95.7466 -275.38 -101.097 -284.298 -106.436 -293.246C-147.543 -362.69 -188.067 -432.433 -226.601 -503.889C-247.885 -543.661 -268.719 -583.695 -287.993 -624.714C-299.973 -650.089 -311.303 -675.57 -319.746 -700.913C-321.248 -705.374 -322.569 -709.822 -324.053 -714.667C-324.077 -714.789 -324.108 -714.908 -324.146 -715.023C-324.802 -717.212 -325.487 -719.461 -326.23 -721.833C-326.925 -721.506 -327.63 -721.182 -328.345 -720.862C-330.235 -719.997 -331.991 -719.219 -333.613 -718.155C-333.993 -717.901 -333.749 -715.794 -333.269 -714.297C-329.703 -703.389 -326.49 -692.54 -322.373 -681.468C-317.316 -667.817 -311.61 -654.222 -305.58 -640.679C-299.453 -626.932 -292.961 -613.258 -286.377 -599.601C-260.529 -545.796 -232.995 -493.234 -204.471 -441.488C-184.821 -406.14 -164.904 -371.019 -144.863 -335.955C-144.682 -335.641 -144.501 -335.327 -144.32 -335.013C-132.751 -314.964 -121.193 -294.935 -109.584 -274.905C-94.9696 -249.822 -80.2944 -224.768 -65.5579 -199.743C-47.8731 -169.839 -30.1065 -139.972 -12.3617 -110.046C0.289389 -88.7588 11.7768 -66.5487 20.5336 -43.4018C21.1332 -41.8111 21.6618 -40.212 22.1194 -38.6045C22.9985 -35.5722 23.6949 -32.5036 24.372 -29.476ZM48.5281 -37.3099C46.6582 -54.161 39.2154 -69.5354 31.5862 -84.7222C12.8246 -121.737 -8.96036 -156.528 -30.6131 -191.356C-31.0679 -192.074 -31.516 -192.796 -31.9572 -193.52C-48.9099 -221.023 -65.812 -248.524 -82.6323 -276.064C-83.8068 -277.991 -84.9813 -279.919 -86.1557 -281.846C-117.224 -333.268 -147.965 -384.843 -178.213 -436.751C-209.97 -492.019 -240.581 -548.301 -269.237 -606.053C-282.275 -632.403 -294.944 -658.976 -305.051 -685.783C-308.477 -694.858 -311.32 -703.808 -314.153 -712.738C-314.166 -712.765 -314.172 -712.796 -314.171 -712.829C-315.095 -715.691 -315.988 -718.542 -316.921 -721.424C-317.154 -722.288 -317.267 -723.059 -317.252 -723.715C-317.249 -723.816 -317.24 -723.921 -317.224 -724.028C-317.222 -724.129 -317.199 -724.24 -317.176 -724.35C-317.119 -724.652 -317.012 -724.902 -316.836 -725.06C-315.317 -726.076 -313.672 -726.825 -311.875 -727.622C-311.528 -727.769 -311.191 -727.92 -310.864 -728.074C-310.523 -728.234 -310.179 -728.388 -309.832 -728.535C-309.541 -727.598 -309.267 -726.753 -309.032 -725.989C-309.02 -725.962 -309.004 -725.928 -308.984 -725.887C-308.589 -724.625 -308.25 -723.586 -307.96 -722.599C-301.579 -698.982 -291.267 -674.444 -279.878 -649.791C-257.753 -601.873 -232.87 -555.63 -207.465 -509.657C-170.245 -443.002 -131.146 -377.982 -91.5371 -313.202C-91.3879 -312.956 -91.2419 -312.716 -91.0991 -312.484C-85.3151 -303.104 -79.5142 -293.725 -73.6965 -284.344C-43.8395 -236.448 -13.9332 -188.5 15.9804 -140.431C30.9461 -116.563 44.8397 -91.79 55.2969 -65.7231C57.7611 -59.5914 58.6741 -53.2534 60.0452 -47.0563C60.2741 -46.0403 59.4821 -45.0177 58.8954 -44.5666C56.5297 -42.8027 54.1061 -41.1614 51.4662 -39.3433C50.4868 -38.6655 49.5075 -37.9877 48.5281 -37.3099ZM64.5972 -76.623C67.9641 -68.469 69.7402 -60.14 72.0944 -52.3332C74.0154 -53.6627 76.7744 -55.3871 79.3998 -57.4482C80.1824 -58.0666 81.0524 -59.4006 80.7813 -60.7713C79.6209 -66.4682 78.7886 -72.3697 76.4761 -78.0735C66.6089 -102.146 53.7672 -125.216 39.638 -147.256C12.0712 -190.662 -15.6024 -233.817 -43.3709 -276.803C-51.3476 -289.229 -59.3147 -301.634 -67.2613 -314.049C-110.021 -381.54 -152.209 -449.301 -192.29 -518.954C-219.15 -566.214 -245.437 -613.794 -268.303 -663.285C-278.498 -685.455 -287.554 -707.487 -293.087 -728.456C-293.394 -729.585 -293.761 -730.736 -294.223 -732.192C-294.486 -733.017 -294.779 -733.903 -295.098 -734.952C-297.203 -733.96 -299.044 -733.467 -300.508 -732.228C-300.798 -731.942 -300.961 -731.44 -300.987 -730.753C-301.013 -730.067 -300.892 -729.225 -300.671 -728.28C-299.919 -725.887 -299.196 -723.506 -298.464 -721.103C-295.853 -712.593 -293.223 -704.042 -289.92 -695.334C-276.345 -659.522 -258.55 -624.399 -240.372 -589.632C-207.132 -526.497 -171.565 -465.207 -135.019 -404.703C-113.107 -368.848 -90.9588 -333.179 -68.6576 -297.557C-42.6251 -256.401 -16.399 -215.31 9.84642 -174.179C29.9753 -142.903 50.2065 -111.251 64.5972 -76.623Z" fill="white"/>
</g>
<path d="M-487.663 659.546L-524.828 473.727L-378.82 495.004L-129.654 511.966L172.365 482.154L453.791 425.867L757.77 342.123L1160.49 232L1369.36 190.226L1520.27 187.577L1610.78 201.599L1677.56 535.486L1666.38 525.484L1520.27 511.365L1177.26 537.647L765.911 609.723L508.509 661.206L161.188 696.509L-24.436 701.512L-241.439 692.394L-487.663 659.546Z" fill="#111111"/>
<mask id="mask3_2473_21" style="mask-type:alpha" maskUnits="userSpaceOnUse" x="-528" y="77" width="2207" height="767">
<path d="M1609.36 157.775C1643.05 326.198 1687.01 562.646 1676.42 551.426C1648.97 522.329 1508.34 514.393 1338.5 531.5C1012.31 564.355 571.658 659 571 659C570 659 276.663 843.064 276.663 843.064L-467.972 756.768L-527.969 456.797L-377.182 426.639L934.348 77.5709L1609.36 157.775Z" fill="#D9D9D9"/>
</mask>
<g mask="url(#mask3_2473_21)">
<path fill-rule="evenodd" clip-rule="evenodd" d="M1493.99 523.926C1504.14 523.662 1514.32 523.433 1524.46 523.235C1524.57 524.204 1524.68 525.173 1524.8 526.142C1524.04 526.399 1523.27 526.655 1522.49 526.911C1522.06 527.058 1521.65 527.206 1521.24 527.355C1520.91 527.465 1520.57 527.574 1520.24 527.684C1519.4 527.958 1518.6 528.201 1517.77 528.377C1499.74 532.854 1481.74 537.43 1463.78 541.977C1462.38 542.302 1460.99 542.639 1459.61 542.987C1459.41 543.039 1459.21 543.092 1459.01 543.145C1458.66 543.209 1458.31 543.285 1457.95 543.371C1457.62 543.459 1457.27 543.557 1456.92 543.665C1434.36 549.227 1411.84 554.758 1389.24 559.989C1369.07 564.623 1348.89 569.026 1328.63 573.096C1272.65 583.978 1216.64 594.365 1160.65 604.296C1118.05 611.647 1075.49 618.771 1032.92 625.664C964.56 636.37 896.233 646.554 827.993 656.415C756.873 666.189 685.752 675.472 616.979 690.544C607.391 692.811 598.123 695.689 589.341 699.188C588.462 699.59 587.676 700.097 587.015 700.677C586.633 701.013 586.281 701.384 585.96 701.789C585.137 702.851 584.633 704.064 584.518 705.336C584.576 710.028 585.287 714.762 585.94 718.87C586.142 720.325 586.38 721.718 586.528 722.973C592.552 721.591 598.453 720.07 604.287 718.577C616.724 715.347 628.994 712.171 641.731 710.402C644.531 710.014 647.333 709.616 650.135 709.206C650.267 709.193 650.388 709.179 650.499 709.164C685.804 704.162 721.117 699.03 756.529 693.904C798.636 687.636 840.842 681.374 883.12 675.511C972.847 662.412 1062.77 648.867 1152.74 634.506C1238.76 619.955 1324.83 604.588 1410.85 587.972C1476.28 574.782 1541.25 558.775 1604.03 535.382C1611.99 531.994 1620.95 531.326 1629.3 533.504C1635.3 535.038 1641.34 536.477 1647.38 537.882C1649.15 538.302 1650.92 538.712 1652.71 539.111C1655.36 539.741 1658.02 540.371 1660.69 541.003C1660.72 541.573 1660.75 542.155 1660.8 542.748C1660.82 543.186 1660.84 543.636 1660.88 544.097C1657.49 545.78 1654.13 547.563 1650.77 549.314C1649.19 550.13 1647.61 550.946 1646.03 551.762C1643.31 553.193 1640.57 554.59 1637.79 555.919C1634.68 557.391 1631.54 558.795 1628.34 560.096C1572.24 582.543 1513.76 597.657 1454.68 609.387C1284.81 640.957 1114.8 667.697 945.184 692.791C887.038 700.681 829.016 708.676 771.1 716.548C732.781 721.519 694.497 726.46 656.225 731.205C640.133 733.151 624.543 736.965 609.088 740.722C606.359 741.355 603.64 741.999 600.931 742.655C596.463 743.81 590.425 747.453 590.472 750.276C590.577 758.315 593.257 766.586 595.357 774.688C595.592 775.621 598.48 776.594 600.281 777.137C604.55 778.559 609.005 779.634 613.483 780.349C617.682 780.816 621.882 781.284 626.079 781.784C628.704 782.084 631.329 782.396 633.953 782.718C639.767 783.399 645.591 784.08 651.427 784.763C682.365 788.495 713.274 792.193 744.138 794.02C832.103 799.102 919.426 797.848 1006.31 793.32C1144.01 785.118 1281.56 774.218 1419.23 761.949C1441.9 759.772 1464.57 757.431 1487.22 755.022C1496.4 754.019 1505.59 753.027 1514.79 752.046C1616.46 740.275 1718.2 727.46 1821.05 720.814C1854.95 718.344 1888.94 715.946 1922.88 722.495C1931.59 724.139 1939.17 726.037 1940.63 738.524C1947.99 708.181 1935.42 691.698 1904.42 687.863C1901.79 687.529 1899.24 687.365 1896.62 687.393C1891.26 687.572 1885.88 687.651 1880.46 687.728C1877.66 687.744 1874.87 687.771 1872.07 687.809C1869.55 687.822 1867.05 687.835 1864.55 687.85C1856.91 687.881 1849.24 687.911 1841.66 688.045C1837.65 688.115 1833.65 688.184 1829.61 688.285C1817.26 688.668 1804.92 689.315 1792.73 690.693C1754.2 694.864 1715.73 699.137 1677.32 703.48C1624.99 709.154 1572.72 714.963 1520.53 720.975C1468.12 726.808 1415.74 732.709 1363.41 738.35C1362.53 738.447 1361.66 738.543 1360.8 738.641C1223.37 752.368 1086.03 764.527 947.807 770.073C856.406 773.031 764.822 773.748 672.515 765.336C663.945 764.521 655.359 763.443 646.803 762.4C644.808 762.162 642.802 761.912 640.786 761.651C639.354 761.493 637.911 761.323 636.459 761.142C636.347 760.501 636.236 759.849 636.126 759.187C639.481 758.682 642.847 758.166 646.225 757.641C646.798 757.569 647.383 757.475 647.981 757.361C651.491 756.822 655.002 756.273 658.513 755.712C663.911 754.88 669.339 754.083 674.761 753.383C675.621 753.264 676.481 753.144 677.341 753.025C678.422 752.876 679.514 752.717 680.618 752.548C683.166 752.188 685.746 751.829 688.296 751.436C700.91 749.529 713.56 747.59 726.422 747.436C756.875 747.007 787.74 749.325 818.299 749.295C934.62 748.829 1050.09 741.751 1165.26 731.638C1189.24 729.414 1213.19 727.09 1237.18 724.735C1253.29 723.085 1269.39 721.435 1285.5 719.785C1323.93 715.674 1362.36 711.431 1400.81 707.058C1481.62 697.417 1562.44 687.187 1643.35 676.7C1716.98 666.563 1790.89 656.772 1865.69 656.449C1866.61 656.442 1867.53 656.436 1868.45 656.43C1879.01 656.324 1889.71 656.194 1900.27 657.727C1910.92 659.234 1921.54 662.378 1931.81 668.811C1930.5 660.726 1929.14 653.884 1928.37 646.95C1927.22 636.811 1921.22 631.309 1911.79 629.553C1901.59 627.486 1891.36 626.039 1881.05 625.211C1833.19 622.091 1785.62 626.695 1738.47 633.262C1655.14 644.314 1571.95 655.735 1488.83 666.506C1488.61 666.557 1488.39 666.598 1488.17 666.627C1487 666.77 1485.83 666.914 1484.66 667.057C1467.21 669.232 1449.76 671.385 1432.31 673.517C1288.29 690.163 1144.36 704.979 1000.57 718.034C992.428 718.722 984.242 719.08 976.057 719.404C974.94 719.441 973.833 719.49 972.736 719.551C969.909 719.664 967.113 719.811 964.284 719.956C966.79 718.216 969.939 717.174 973.26 717.027C1015.93 711.648 1058.61 706.138 1101.28 700.398C1155.7 692.793 1210.12 684.827 1264.52 676.532C1290.88 672.364 1317.2 667.897 1343.53 663.333C1343.62 663.339 1343.7 663.333 1343.79 663.317C1395.76 654.111 1447.75 644.644 1500.07 636.641C1605.91 619.697 1712.1 602.415 1819.81 595.689C1822.12 595.531 1824.42 595.385 1826.72 595.249C1826.81 595.233 1826.9 595.228 1826.99 595.233C1842.27 594.186 1857.75 593.086 1873 594.004C1880.74 594.47 1888.51 595.463 1896.14 597.201C1904.34 599.107 1912.43 601.858 1920.36 605.878C1917.5 573.005 1915.32 570.242 1886.41 564.444C1883.2 563.909 1879.95 563.568 1876.7 563.49C1827.83 560.273 1779.48 566.334 1731.1 572.165C1726.14 572.796 1721.19 573.395 1716.22 574.091C1712.87 574.531 1709.52 574.97 1706.17 575.41C1701.45 576.046 1696.73 576.681 1692.02 577.317C1681.96 578.701 1671.81 580.079 1661.46 581.444C1663.67 579.161 1666.19 577.127 1668.65 575.122C1676.44 568.772 1683.74 562.784 1679.27 550.791C1680.29 550.168 1681.44 549.685 1682.61 549.334C1736.96 541.364 1791.39 533.53 1846.43 533.145C1867.92 532.99 1890.07 532.221 1910.28 546.639C1909.9 544.385 1909.48 542.325 1909.12 540.335C1908.29 536.38 1907.6 532.86 1907.5 529.28C1906.82 514.384 1898.06 506.836 1884.35 505.952C1857.86 504.342 1831.22 501.673 1804.86 503.646C1763.45 506.745 1722.34 513.242 1680.98 518.083C1679.66 518.227 1678.11 518.422 1676.67 518.395C1676.31 518.404 1675.91 518.412 1675.56 518.356C1674.55 518.258 1673.61 518.001 1672.92 517.497C1655.38 504.399 1634.15 500.998 1613.18 497.777C1570.51 491.353 1527.41 489.754 1484.07 490.172C1408.55 490.843 1333.66 498.112 1259.11 508.222C1115.21 526.548 974.262 554.048 834.738 583.345C792.463 591.7 750.222 600.025 708.059 608.158C675.634 614.264 643.217 620.239 610.806 626.116C610.452 626.18 610.11 626.245 609.777 626.311C549.559 636.854 489.337 646.937 429.063 656.296C288.351 676.565 146.824 691.668 1.2114 692.343C-81.9502 692.095 -165.808 687.901 -249.757 680.028C-321.552 673.333 -393.097 663.769 -464.175 650.53C-510.476 642.003 -556.267 632.165 -600.1 618.421C-621.508 611.795 -642.219 604.525 -658.926 594.137C-671.193 586.592 -670.682 583.248 -659.04 579.638C-656.252 580.637 -653.494 581.602 -650.741 582.632C-646.511 584.151 -642.316 585.7 -638.154 587.247C-635.465 588.251 -632.776 589.255 -630.086 590.259C-626.791 591.52 -623.458 592.719 -620.161 593.948C-618.366 594.588 -616.604 595.226 -614.84 595.832C-611.411 597.069 -607.979 598.242 -604.514 599.416C-601.301 600.443 -598.089 601.469 -594.809 602.468C-524.821 623.964 -451.104 636.455 -376.959 646.876C-297.003 658.195 -216.908 665.327 -136.75 669.447C-22.6163 674.938 89.6628 672.081 200.714 662.324C330.369 649.309 457.713 628.407 585.196 605.35C594.357 603.602 603.519 601.854 612.68 600.106C614.231 599.791 615.78 599.486 617.329 599.193C753.262 571.697 889.387 541.723 1027.89 516C1170.49 487.328 1314.26 462.403 1461.63 457.808C1520.94 455.797 1579.93 457.24 1637.55 470.726C1650.08 473.698 1662.8 477.796 1669.17 490.732C1671.61 490.529 1674.18 490.334 1676.76 490.073C1691.95 488.397 1707.14 486.623 1722.27 484.845C1722.69 484.806 1723.1 484.756 1723.5 484.694C1740.77 482.661 1758.05 480.628 1775.36 478.695C1793.55 476.688 1811.74 474.811 1829.9 473.229C1840.22 472.321 1850.75 471.786 1861.14 472.817C1865.48 473.228 1869.79 473.899 1874.06 474.928C1882.9 477.105 1891.55 480.712 1899.89 486.594C1899.37 483.971 1899.04 481.458 1898.74 478.979C1897.99 473.455 1897.26 468.425 1895.36 463.909C1893.93 460.637 1891.99 457.167 1889.59 454.226C1887.67 451.84 1885.45 449.795 1882.97 448.553C1875.47 444.857 1867.13 443.04 1858.65 443.281C1822.98 444.292 1787.22 445.231 1751.61 448.41C1722.59 450.965 1693.68 456.445 1664.09 460.733C1662.69 443.791 1648.02 439.468 1635.28 436.712C1608.94 430.882 1582.08 426.888 1554.98 424.681C1494.71 420.205 1434.16 422.726 1373.78 428.603C1267.67 438.514 1163.4 456.51 1060 477.711C905.376 507.312 753.958 542.596 602.708 574.775C602.641 574.793 602.575 574.8 602.51 574.795C594.691 576.389 586.874 577.962 579.059 579.512C445.753 604.915 312.603 627.902 176.76 641.797C56.1284 652.673 -67.1314 653.97 -191.129 646.367C-259.045 642.053 -327.042 634.915 -394.706 625.174C-455.256 616.45 -515.236 605.993 -573.137 590.259C-593.892 584.691 -613.882 577.927 -635.59 571.38C-618.959 565.141 -604.21 561.666 -585.691 569.877C-583.962 570.513 -582.124 570.992 -580.247 571.375C-521.261 587.572 -460.19 598.395 -398.365 607.169C-278.813 624.222 -159.366 631.728 -40.2443 632.065C52.392 631.81 143.299 624.82 233.395 614.138C350.737 598.853 466.196 577.185 581.771 553.721C598.147 550.253 614.537 546.741 630.94 543.187C781.999 508.897 933.404 471.777 1088.45 441.809C1206.55 417.294 1325.73 396.882 1447.19 391.502C1508.16 388.614 1568.91 389.187 1627.88 403.482C1642.5 407.08 1656.95 412.373 1658.05 430.377C1658.04 430.475 1658.07 430.575 1658.1 430.675C1658.15 430.81 1658.21 430.923 1658.27 431.014C1658.39 431.219 1658.54 431.425 1658.76 431.636C1658.82 431.705 1658.88 431.764 1658.94 431.812C1659.22 432.125 1659.52 432.439 1659.83 432.82C1662.69 432.436 1665.57 432.053 1668.46 431.671C1669.1 431.581 1669.74 431.492 1670.38 431.402C1671.5 431.256 1672.63 431.099 1673.75 430.931C1679.3 430.24 1684.83 429.481 1690.42 428.694C1696.64 427.828 1702.86 426.972 1709.08 426.127C1709.12 426.108 1709.18 426.09 1709.24 426.072C1739.58 421.832 1769.92 417.527 1800.37 414.605C1830.07 411.7 1860.64 408.885 1888.31 425.653C1887.82 418.605 1887.55 411.506 1885.14 405.711C1884.18 403.354 1882.84 401.235 1880.99 399.378C1879.85 398.223 1878.48 397.151 1876.83 396.258C1876.23 395.924 1875.53 395.584 1874.86 395.278C1874.16 394.971 1873.43 394.694 1872.65 394.447C1868.8 393.182 1864.84 392.14 1860.83 391.291C1855.36 390.152 1849.83 389.435 1844.25 389.107C1800.9 386.64 1757.9 393.047 1714.92 399.554C1705.75 400.962 1696.64 402.473 1687.49 404.014C1676.98 405.796 1666.44 407.607 1655.7 409.341C1654.39 403.224 1652.8 397.974 1652.16 392.589C1652.08 391.862 1651.99 391.168 1651.87 390.439C1651.78 389.908 1651.65 389.343 1651.52 388.843C1651.1 387.078 1650.49 385.498 1649.7 384.004C1648.7 382.235 1647.39 380.675 1645.73 379.421C1644.86 378.709 1643.88 378.154 1642.83 377.594C1641.81 377.103 1640.72 376.704 1639.54 376.333C1624.67 371.899 1610.1 366.139 1594.75 363.576C1542.72 354.943 1489.63 355.06 1436.52 358.127C1349.16 362.985 1262.83 375.745 1177.15 392.186C1060.9 413.508 946.646 439.812 833.82 468.437C795.847 477.693 757.979 486.857 720.151 495.893C682.171 504.754 644.2 513.486 606.243 521.989C605.422 522.176 604.591 522.352 603.75 522.516C541.535 536.045 479.387 549.053 417.128 561.234C299.371 582.951 180.764 600.548 59.1552 608.279C-38.4586 613.525 -137.494 612.352 -236.741 605.296C-335.034 598.204 -432.546 586.604 -528.431 566.061C-532.925 565.083 -537.354 564.109 -541.874 563.03C-545.556 562.17 -549.299 561.24 -553.143 560.336C-553.228 560.309 -553.303 560.282 -553.367 560.256C-557.565 559.264 -561.89 558.199 -566.412 557.153C-562.945 556.262 -559.65 555.491 -556.554 554.772C-550.194 553.248 -544.534 551.908 -539.404 550.141C-534.306 548.371 -530.129 548.673 -524.337 549.867C-464.534 562.542 -403.7 571.449 -342.26 578.066C-278.933 584.904 -215.456 589.423 -152.141 591.375C-81.7288 593.588 -11.639 592.665 57.7126 588.449C166.93 580.706 273.797 565.172 379.47 545.266C448.126 531.497 516.676 516.836 585.27 501.489C674.819 480.478 764.439 458.356 854.35 435.795C987.443 400.477 1122.52 368.5 1260.96 346.838C1366.01 329.482 1471.39 318.18 1576.93 329.871C1600.98 332.635 1625.29 335.94 1645.47 351.962C1644.8 348.116 1643.91 344.648 1643.27 341.361C1642.81 338.807 1642.44 336.357 1642.47 333.9C1642.54 314.955 1628 307.591 1612.57 304.399C1604.61 302.706 1596.58 301.172 1588.54 299.801C1579.52 298.301 1570.43 296.993 1561.31 295.914C1551.13 294.733 1540.86 293.808 1530.58 293.145C1451.89 289.12 1373.15 296.566 1294.79 308.759C1191.71 324.111 1090.49 346.632 990.312 371.745C855.193 403.916 722.644 439.957 590.287 473.519C585.001 474.817 579.715 476.116 574.43 477.414C571.344 478.155 568.258 478.896 565.172 479.637C431.11 510.662 297.186 539.041 159.888 557.203C55.1822 569.729 -51.8673 574.367 -159.686 571.611C-226.938 569.7 -294.361 564.861 -361.514 557.35C-414.408 551.415 -466.927 543.733 -518.576 533.222C-519.804 532.946 -520.871 532.714 -521.803 532.424C-523.636 531.88 -524.974 531.269 -525.879 530.555C-527.283 529.448 -527.784 528.071 -527.891 526.163C-527.93 525.242 -528.058 524.185 -528.352 523.149C-528.504 522.451 -528.753 521.747 -529.038 521.073C-529.81 519.318 -531.054 517.762 -532.905 516.987C-541.442 513.617 -550.886 511.107 -560.755 509.585C-584.163 506.01 -607.733 503.933 -631.299 502.806C-646.202 502.075 -661.129 501.703 -675.974 501.598C-750.285 500.871 -824.474 500.284 -898.539 499.802C-908.215 499.703 -917.903 499.614 -927.603 499.535C-941.953 499.374 -956.292 499.215 -970.62 499.056C-970.881 499.039 -971.132 499.034 -971.373 499.04C-1084.83 497.232 -1198.23 494.673 -1312.29 488.958C-1380.6 485.306 -1448.92 481.097 -1517.57 474.441C-1569.82 469.629 -1621.61 464.421 -1669.71 453.221C-1670.35 453.081 -1671.17 453.061 -1672.22 453.026C-1672.48 453.009 -1672.74 453.003 -1673 453.008C-1673.16 452.999 -1673.31 452.989 -1673.46 452.979C-1673.79 452.958 -1674.11 452.937 -1674.44 452.916C-1674.68 456.573 -1675.17 460.147 -1674.91 463.77C-1674.86 464.003 -1674.74 464.207 -1674.53 464.418C-1674.28 464.696 -1673.94 464.98 -1673.5 465.271C-1672.71 465.716 -1671.65 466.144 -1670.4 466.487C-1661.59 468.138 -1652.85 469.947 -1644.04 471.662C-1636.47 473.134 -1628.85 474.543 -1621.06 475.734C-1564.45 485.089 -1506.71 490.551 -1449.27 494.713C-1438.11 495.531 -1426.95 496.349 -1415.79 497.135C-1405.94 497.836 -1396.08 498.504 -1386.25 499.171C-1378.97 499.673 -1371.7 500.175 -1364.45 500.675C-1352.86 501.423 -1341.23 502.172 -1329.64 502.92C-1293.13 505.176 -1256.71 507.197 -1220.33 508.887C-1154.65 511.778 -1089.14 513.74 -1023.61 515.441C-1023.22 515.467 -1022.82 515.481 -1022.43 515.485C-1007.37 515.844 -992.303 516.192 -977.222 516.531C-970.259 516.674 -963.285 516.829 -956.302 516.995C-949.076 517.133 -941.851 517.282 -934.626 517.442C-889.243 518.336 -843.853 519.132 -798.455 519.797C-778.713 520.065 -758.959 520.311 -739.193 520.537C-723.138 520.698 -707.083 520.848 -691.027 520.987C-682.049 521.074 -672.97 521.627 -662.865 522.016C-676.165 533.551 -680.025 545.105 -674.096 553.324C-650.254 529.321 -604.602 518.429 -550.152 532.268C-551.663 532.651 -553.164 533.046 -554.655 533.453C-555.901 533.788 -557.145 534.112 -558.39 534.425C-560.523 534.976 -562.557 535.501 -564.652 535.956C-587.226 540.795 -610.382 545.006 -632.323 550.214C-662.614 557.277 -681.745 568.731 -674.231 589.478C-673.959 590.348 -673.853 591.24 -673.973 592.084C-674.981 600.085 -667.71 606.816 -657.034 613.11C-650.497 616.975 -643.407 620.415 -635.971 623.55C-630.864 625.716 -625.585 627.728 -620.168 629.651C-612.442 632.379 -604.443 634.927 -596.372 637.382C-535.833 655.941 -472.667 667.818 -409.042 678.183C-313.002 693.785 -216.854 703.133 -120.719 708.611C-12.9612 714.347 93.3229 712.938 198.549 705.56C322.933 695.483 445.318 678.262 567.819 659.244C568.746 659.107 569.662 658.969 570.567 658.831C571.913 658.634 573.27 658.437 574.637 658.241C575.785 658.075 576.943 657.909 578.112 657.744C579.042 664.339 579.971 670.945 580.899 677.562C598.966 672.957 616.035 667.566 633.967 664.034C726.795 645.037 822.226 632.471 917.362 617.852C1052.94 595.35 1188.7 570.958 1324.65 544.808C1330.69 543.591 1336.71 542.274 1342.71 540.858C1346.8 539.909 1350.86 538.925 1354.96 537.976C1362.18 536.245 1369.41 534.482 1376.66 532.884C1382.12 531.629 1387.57 530.473 1393.05 529.449C1397.07 528.659 1401.08 527.966 1405.08 527.372C1409.42 526.734 1413.82 526.165 1418.2 525.727C1425.03 525.052 1431.95 524.646 1438.93 524.702C1457.28 524.771 1475.63 524.381 1493.99 523.926ZM-1658.26 428.78C-1662.67 427.938 -1667.23 427.054 -1671.99 426.156C-1672.02 426.854 -1672.05 427.552 -1672.1 428.248C-1672.11 428.815 -1672.14 429.382 -1672.17 429.948C-1672.22 431.256 -1672.24 432.534 -1672.36 433.838C-1672.42 434.817 -1672.52 435.794 -1672.65 436.77C-1673 438.681 -1671.13 439.72 -1665.93 440.908C-1632.01 448.799 -1595.49 453.319 -1558.32 457.092C-1498.93 463.447 -1439.23 468.018 -1379.95 470.595C-1358.67 471.508 -1337.41 472.42 -1316.13 473.3C-1288.72 474.412 -1261.32 475.49 -1233.94 476.469C-1205.29 477.465 -1176.69 478.391 -1148.09 479.186C-1123.44 479.857 -1098.82 480.428 -1074.2 480.934C-1002.15 482.17 -930.188 482.68 -858.235 482.861C-855.59 482.857 -852.956 482.863 -850.335 482.879C-838.727 482.862 -827.12 482.846 -815.513 482.829C-798.888 482.787 -782.26 482.711 -765.603 482.671C-740.742 482.536 -715.849 482.404 -690.957 482.271C-669.705 482.167 -648.378 482.427 -627.006 483.51C-615.729 484.041 -604.436 484.834 -593.128 485.892C-581.527 487 -569.877 488.342 -558.286 490.105C-535.849 493.487 -529.697 497.228 -529.76 509.387C-529.767 513.059 -527.797 515.054 -521.179 516.137C-509.919 517.945 -498.634 519.886 -487.383 521.824C-464.72 525.777 -442.06 529.763 -419.217 532.941C-338.808 544.356 -257.913 550.261 -176.872 552.896C-54.126 556.517 66.2531 549.559 184.843 533.24C293.569 516.842 400.091 493.941 506.749 469.443C518.626 466.603 530.504 463.751 542.382 460.889C627.41 439.815 712.506 417.697 797.923 395.173C818.377 389.64 838.834 384.074 859.323 378.511C884.791 371.497 910.289 364.519 935.792 357.475C1053.98 324.016 1174.52 296.184 1297.73 277.868C1380.46 265.072 1463.31 256.939 1546.15 263.724C1546.32 263.757 1546.5 263.78 1546.7 263.792C1577.09 266.342 1607.74 268.909 1634.51 287.028C1633.89 284.146 1633.26 281.265 1632.64 278.383C1632.52 277.829 1632.4 277.275 1632.29 276.721C1631.49 273.107 1630.71 269.505 1629.94 265.914C1629.25 262.821 1628.53 259.823 1627.8 256.826C1627.47 254.805 1626.37 253.029 1624.65 251.77C1622.3 250.668 1619.95 249.402 1617.6 248.169C1617.06 247.871 1616.51 247.584 1615.96 247.308C1614.96 246.785 1613.98 246.274 1613.01 245.774C1611.61 245.028 1610.21 244.348 1608.81 243.733C1605.11 242.052 1601.36 240.728 1597.44 240.049C1585.8 237.987 1574.13 235.956 1562.37 234.247C1548.44 232.266 1534.38 230.671 1520.26 229.99C1461.88 227.242 1403.13 231.289 1344.56 239.02C1264.26 249.35 1185.08 265.128 1106.87 283.658C976.421 313.638 849.163 349.987 722.707 386.094C674.851 399.138 627.187 412.261 579.511 425.055C465.931 454.188 352.477 481.363 237.056 502.444C100.909 525.139 -37.2297 537.017 -179.611 533.343C-276.115 530.53 -371.963 523.136 -467.038 507.825C-476.188 506.35 -485.3 504.779 -494.379 503.21C-506.016 501.148 -517.584 499.025 -529.155 496.967C-529.238 495.869 -529.321 494.782 -529.404 493.706C-529.632 490.806 -529.861 487.917 -530.091 485.039C-530.208 483.457 -530.324 481.876 -530.441 480.295C-526.487 481.009 -523.768 481.545 -521.009 481.985C-511.208 483.535 -501.443 485.148 -491.681 486.794C-469.496 490.52 -447.313 494.278 -424.918 497.296C-389.561 502.166 -354.063 505.865 -318.443 508.686C-287.126 511.132 -255.735 512.927 -224.305 514.134C-149.153 517.079 -74.1553 516.308 0.0747426 511.686C94.73 505.036 187.975 492.295 278.877 473.174C422.37 440.79 565.244 403.775 708.57 364.33C845.659 323.992 983.496 282.718 1125.6 250.473C1250.16 220.933 1375.77 197.001 1503.76 200.009C1534.96 200.808 1565.77 206.04 1596.26 211.023C1603.3 212.198 1609.58 216.078 1615.38 219.665C1616.3 220.228 1617.23 220.801 1618.15 221.385C1619.7 222.304 1621.18 223.22 1622.67 223.972C1622.35 222.442 1622.18 220.924 1622.15 219.413C1622.02 199.504 1610.34 187.44 1590.04 184C1589.61 183.928 1589.16 183.856 1588.71 183.783C1583.23 182.839 1577.78 181.898 1572.3 181.02C1564.87 179.786 1557.4 178.649 1549.96 177.612C1547.13 177.2 1544.27 176.852 1541.44 176.473C1538.58 176.124 1535.75 175.778 1532.85 175.492C1523.41 174.49 1513.92 173.747 1504.39 173.46C1427.57 170.998 1350.68 179.712 1274.2 193.304C1148.21 215.08 1025.21 246.491 904.84 283.777C786.955 318.665 669.964 353.415 553.062 386.269C532.196 391.917 511.322 397.522 490.439 403.082C490.396 403.079 490.351 403.087 490.306 403.106C490.284 403.105 490.251 403.114 490.206 403.133C490.163 403.13 490.118 403.138 490.073 403.157C490.05 403.177 490.017 403.186 489.974 403.183C489.93 403.18 489.887 403.178 489.843 403.175C382.101 430.75 274.538 456.567 164.145 474.923C91.5811 486.243 18.2138 494.266 -56.5177 497.512C-120.845 500.085 -185.588 499.943 -250.422 497.139C-320.838 493.975 -390.941 487.979 -460.216 477.283C-483.983 473.684 -507.554 469.574 -532.151 465.628C-532.088 469.063 -532.025 472.488 -531.961 475.902C-542.942 473.325 -553.324 470.098 -564.239 468.542C-603.136 463.148 -642.49 461.791 -681.494 462.128C-754.232 462.421 -826.851 462.918 -899.318 463.589C-919.556 463.727 -939.824 463.83 -960.06 463.935C-960.124 463.909 -960.189 463.904 -960.256 463.922C-1095.69 463.811 -1231.01 462.527 -1367.49 456.349C-1425.32 453.637 -1483.19 450.2 -1541.11 444.891C-1571.75 442.194 -1602.4 438.972 -1631.73 433.769C-1640.52 432.251 -1649.1 430.551 -1658.26 428.78ZM-1668.28 400.069C-1657.47 402.307 -1648.07 404.487 -1638.19 406.272C-1601.51 412.965 -1562.96 416.631 -1524.03 419.502C-1449.74 425.145 -1375.78 427.816 -1301.87 429.598C-1187.89 431.932 -1074.63 431.072 -961.308 429.396C-952.269 429.214 -943.231 429.032 -934.192 428.85C-925.744 428.673 -917.295 428.497 -908.847 428.32C-891.446 427.934 -874.012 427.551 -856.578 427.167C-850.21 427.053 -843.841 426.917 -837.47 426.759C-821.381 426.387 -805.294 426.048 -789.174 425.71C-752.925 424.867 -716.644 424.059 -680.335 423.319C-641 422.413 -601.249 423.206 -562.177 428.939C-558.119 429.561 -554.18 430.503 -550.315 431.572C-547.771 432.294 -545.232 433.08 -542.725 433.865C-542.618 433.894 -542.499 433.923 -542.37 433.953C-542.263 433.982 -542.155 434.011 -542.048 434.04C-540.184 434.619 -538.352 435.196 -536.518 435.74C-535.007 436.199 -533.93 437.809 -533.771 438.901C-533.612 440.157 -533.452 441.403 -533.291 442.637C-532.899 445.711 -532.605 448.779 -532.285 451.947C-532.116 453.729 -531.935 455.511 -531.744 457.294C-571.193 444.193 -612.778 443.872 -653.932 443.48C-654.653 443.477 -655.384 443.463 -656.125 443.437C-733.151 442.601 -809.404 444.536 -885.665 446.077C-919.733 446.634 -953.763 447.128 -987.904 447.287C-1044.17 447.396 -1100.49 447.273 -1156.82 446.853C-1171.2 446.713 -1185.62 446.537 -1200.03 446.362C-1208.42 446.258 -1216.82 446.143 -1225.22 446.016C-1240.32 445.764 -1255.45 445.509 -1270.55 445.224C-1282.34 444.989 -1294.12 444.753 -1305.94 444.483C-1377.34 442.829 -1449.24 439.307 -1521.19 433.455C-1560.04 430.425 -1598.59 426.759 -1635.71 420.201C-1648.13 418.056 -1656.07 416.724 -1661.13 415.316C-1663.77 414.556 -1665.62 413.781 -1666.88 412.88C-1668.35 411.834 -1669.02 410.545 -1669.21 408.861C-1669.34 407.934 -1669.31 406.855 -1669.19 405.616C-1669.13 404.637 -1669 403.596 -1668.85 402.392C-1668.78 401.774 -1668.58 401.132 -1668.28 400.069ZM-543.509 414.503C-542.693 414.731 -541.878 414.969 -541.064 415.219C-538.777 415.858 -536.493 416.53 -534.202 417.104C-534.294 415.83 -534.387 414.556 -534.48 413.283C-534.479 413.261 -534.476 413.228 -534.474 413.185C-534.719 409.366 -535.009 405.216 -535.693 401.074C-535.971 399.285 -537.084 396.722 -539.364 395.985C-539.878 395.82 -540.392 395.656 -540.906 395.492C-548.875 392.978 -557.07 390.417 -565.748 389.234C-606.473 383.723 -647.878 383.676 -688.83 385.232C-767.469 388.062 -845.953 391.033 -924.276 394.048C-939.326 394.586 -954.377 395.123 -969.458 395.626C-1086.27 399.109 -1203.05 401.644 -1320.61 400.456C-1385.93 399.588 -1451.27 397.965 -1516.76 393.676C-1557.31 391.094 -1597.54 387.614 -1635.58 380.572C-1642.29 379.352 -1648.85 377.913 -1656.03 376.4C-1656.2 376.346 -1656.37 376.302 -1656.55 376.269C-1659.78 375.569 -1663.11 374.862 -1666.64 374.143C-1666.71 375.253 -1666.79 376.373 -1666.89 377.504C-1667.12 380.505 -1667.36 383.276 -1667.15 386.077C-1667.09 386.736 -1664.25 387.903 -1662.01 388.342C-1645.69 391.46 -1629.69 394.984 -1612.77 397.517C-1591.93 400.665 -1570.7 402.952 -1549.31 404.79C-1527.59 406.649 -1505.71 407.995 -1483.79 409.212C-1397.49 414.121 -1311.58 416.022 -1226.02 416.097C-1167.45 415.939 -1108.98 415.283 -1050.5 414.432C-1049.98 414.422 -1049.45 414.412 -1048.93 414.402C-1015.41 413.777 -981.932 413.149 -948.413 412.458C-906.385 411.496 -864.351 410.436 -822.311 409.279C-772.02 407.8 -721.721 406.192 -671.361 404.652C-635.519 403.521 -599.322 404.511 -563.849 409.618C-561.413 409.972 -559.016 410.422 -556.658 410.967C-552.198 411.976 -547.821 413.242 -543.509 414.503ZM-536.525 378.398C-559.195 368.969 -583.895 367.638 -608.488 366.675C-668.545 364.54 -727.901 367.794 -787.211 370.855C-788.44 370.929 -789.668 370.991 -790.895 371.043C-837.628 373.276 -884.323 375.445 -931.011 377.483C-934.276 377.622 -937.542 377.761 -940.808 377.9C-1027.74 381.278 -1114.65 384.132 -1201.62 386.13C-1293.92 387.686 -1386.7 387.08 -1479.97 382.967C-1522.5 381.044 -1565.06 378.497 -1606.11 372.538C-1620.01 370.527 -1633.35 367.863 -1646.65 365.202C-1646.7 365.199 -1646.74 365.186 -1646.78 365.161C-1651.06 364.328 -1655.3 363.465 -1659.6 362.63C-1660.86 362.319 -1661.92 361.923 -1662.74 361.444C-1662.87 361.37 -1662.99 361.286 -1663.12 361.19C-1663.24 361.116 -1663.37 361.01 -1663.49 360.904C-1663.83 360.619 -1664.08 360.309 -1664.15 359.976C-1664.38 357.338 -1664.17 354.729 -1663.93 351.892C-1663.87 351.349 -1663.82 350.817 -1663.79 350.294C-1663.76 349.75 -1663.71 349.207 -1663.65 348.664C-1662.26 348.95 -1661 349.196 -1659.87 349.433C-1659.82 349.436 -1659.77 349.439 -1659.7 349.443C-1657.83 349.827 -1656.27 350.124 -1654.82 350.447C-1620.41 358.895 -1582.09 363.005 -1542.86 365.83C-1466.63 371.336 -1390.59 372.174 -1314.52 372.161C-1203.97 371.651 -1094.17 367.617 -984.322 362.767C-983.906 362.75 -983.5 362.732 -983.106 362.714C-967.166 361.95 -951.214 361.164 -935.25 360.358C-853.631 356.047 -771.911 351.711 -690.033 347.45C-649.298 345.192 -608.168 344.926 -567.803 349.923C-558.305 351.092 -549.631 354.373 -540.816 356.974C-539.368 357.395 -538.626 359.115 -538.465 360.175C-537.885 364.409 -537.502 368.63 -537.046 373.25C-536.872 374.966 -536.699 376.682 -536.525 378.398ZM-575.107 330.501C-562.414 331.943 -550.612 335.523 -539.068 338.006C-539.408 334.639 -539.662 329.935 -540.436 325.164C-540.672 323.739 -541.754 321.702 -543.682 321.086C-551.716 318.568 -559.779 315.49 -568.629 314.428C-606.052 310.08 -644.288 310.205 -682.119 312.683C-756.443 317.234 -830.524 322.096 -904.457 327.197C-925.793 328.608 -947.097 330.021 -968.398 331.401C-1083.89 338.347 -1199.33 344.378 -1315.68 346.415C-1394.4 347.372 -1473.12 347.377 -1551.86 341.709C-1587.1 339.109 -1621.37 335.161 -1651.83 327.493C-1653.47 327.092 -1655.19 326.751 -1657.36 326.317C-1658.59 326.073 -1659.92 325.824 -1661.47 325.494C-1661.69 328.857 -1662.35 331.535 -1661.81 334.259C-1661.65 334.827 -1661.12 335.385 -1660.27 335.899C-1659.42 336.413 -1658.27 336.848 -1656.92 337.23C-1653.36 337.951 -1649.83 338.703 -1646.27 339.457C-1633.66 342.107 -1620.98 344.761 -1607.62 346.671C-1552.72 354.539 -1495.74 356.574 -1438.94 357.876C-1335.64 359.948 -1233.04 357.777 -1130.76 353.816C-1069.96 351.146 -1009.24 348.046 -948.471 344.719C-878.072 340.537 -807.622 336.064 -737.107 331.595C-683.367 327.979 -629.079 324.496 -575.107 330.501Z" fill="white"/>
</g>
</g>
<defs>
<clipPath id="clip0_2473_21">
<rect width="1512" height="3630" fill="white" transform="translate(0 -1061)"/>
</clipPath>
</defs>
</svg>
