<?xml version="1.0" encoding="UTF-8"?>
<svg width="114px" height="76px" viewBox="0 0 114 76" version="1.1" xmlns="http://www.w3.org/2000/svg" xmlns:xlink="http://www.w3.org/1999/xlink">
    <title>Group 38</title>
    <defs>
        <linearGradient x1="100%" y1="-9.84577769%" x2="32.6773932%" y2="72.7941843%" id="linearGradient-1">
            <stop stop-color="#985EFF" offset="0%"></stop>
            <stop stop-color="#88B5FF" offset="100%"></stop>
        </linearGradient>
        <circle id="path-2" cx="27" cy="34" r="27"></circle>
        <filter x="-25.9%" y="-25.9%" width="159.3%" height="159.3%" filterUnits="objectBoundingBox" id="filter-3">
            <feOffset dx="2" dy="2" in="SourceAlpha" result="shadowOffsetOuter1"></feOffset>
            <feGaussianBlur stdDeviation="5" in="shadowOffsetOuter1" result="shadowBlurOuter1"></feGaussianBlur>
            <feColorMatrix values="0 0 0 0 0   0 0 0 0 0   0 0 0 0 0  0 0 0 0.5 0" type="matrix" in="shadowBlurOuter1"></feColorMatrix>
        </filter>
        <linearGradient x1="50%" y1="0%" x2="50%" y2="100%" id="linearGradient-4">
            <stop stop-color="#FFFFFF" stop-opacity="0.277788496" offset="0%"></stop>
            <stop stop-color="#FFFFFF" stop-opacity="0.6" offset="100%"></stop>
        </linearGradient>
        <linearGradient x1="5.51034513%" y1="60.7577652%" x2="94.4896549%" y2="39.2422348%" id="linearGradient-5">
            <stop stop-color="#FFFFFF" stop-opacity="0.277788496" offset="0%"></stop>
            <stop stop-color="#FFFFFF" stop-opacity="0.6" offset="100%"></stop>
        </linearGradient>
    </defs>
    <g id="Page-1" stroke="none" stroke-width="1" fill="none" fill-rule="evenodd">
        <g id="dashboard" transform="translate(-792.000000, -277.000000)" fill-rule="nonzero">
            <g id="BPU" transform="translate(757.500000, 178.500000)">
                <g id="Group-38" transform="translate(35.000000, 99.500000)">
                    <path d="M77.4,12.5 C79.7748244,12.5 81.9248244,13.3394661 83.4811184,14.6966991 C85.0374122,16.0539322 86,17.9289322 86,20 L86,67 C86,69.0710678 85.0374122,70.9460678 83.4811184,72.3033009 C81.9248244,73.6605339 79.7748244,74.5 77.4,74.5 L8.6,74.5 C6.22517559,74.5 4.07517559,73.6605339 2.51888163,72.3033009 C0.962587795,70.9460678 0,69.0710678 0,67 L0,29 C0,24.4436508 2.11769313,20.3186508 5.54153969,17.3327381 C8.96538625,14.3468254 13.6953863,12.5 18.92,12.5 L77.4,12.5 Z" id="矩形" fill="#8C9EFF" transform="translate(43.000000, 43.500000) scale(1, -1) translate(-43.000000, -43.500000) "></path>
                    <g id="pack" transform="translate(47.500000, 0.000000)">
                        <g id="Oval">
                            <use fill="black" fill-opacity="1" filter="url(#filter-3)" xlink:href="#path-2"></use>
                            <use fill="url(#linearGradient-1)" xlink:href="#path-2"></use>
                        </g>
                        <path d="M29.8696015,0 C38.4914421,0.557723635 46.238038,4.27156613 51.9719542,9.99446637 C57.7123669,15.7238506 61.4355921,23.466892 62,32.0727912 C61.8643741,32.6235677 61.5486271,33.1033224 61.1191259,33.4464837 C60.6854586,33.7929736 60.135565,34 59.5373626,34 L59.5373626,34 L30.5374889,34 C29.8367807,34 29.2024085,33.7158639 28.7432133,33.2564777 C28.2840181,32.7970917 28,32.1624558 28,31.4614563 L28,31.4614563 L28,2.44952836 C28,1.86120221 28.1999916,1.31958237 28.5358146,0.889132255 C28.8680621,0.463265077 29.333045,0.145965972 29.8696015,0 Z" id="Shapes" fill="url(#linearGradient-4)"></path>
                        <path d="M29.8885384,41.0012821 L55.5415304,41.9586342 C56.2563942,41.9918492 56.886254,42.3076353 57.3295203,42.7928251 C57.7733154,43.2785937 58.0297787,43.9338933 57.9972328,44.643122 C57.8279588,48.3320881 56.8290697,51.8300921 55.0015453,55.1374116 C53.076834,58.6206126 50.4053833,61.1629059 46.9845436,62.7613738 C46.4685891,63.0024657 45.9045477,63.0568538 45.376428,62.9426975 C44.8483081,62.828541 44.3561101,62.5458399 43.9838424,62.1127533 L43.9838424,62.1127533 L28.4442235,44.0343408 C28.1424814,43.6833014 27.9841772,43.2300714 28.0012503,42.7660944 C28.0198731,42.2600003 28.2404265,41.8094199 28.5819584,41.4900517 C28.9234904,41.1706835 29.386001,40.9825275 29.8885384,41.0012821 L29.8885384,41.0012821 Z" id="路径-2" fill="url(#linearGradient-5)"></path>
                    </g>
                </g>
            </g>
        </g>
    </g>
</svg>
