<?xml version="1.0" encoding="UTF-8"?>
<svg width="115px" height="79px" viewBox="0 0 115 79" version="1.1" xmlns="http://www.w3.org/2000/svg" xmlns:xlink="http://www.w3.org/1999/xlink">
    <title>Group 36</title>
    <defs>
        <linearGradient x1="100%" y1="15.642313%" x2="20.2463681%" y2="92.5421113%" id="linearGradient-1">
            <stop stop-color="#979797" stop-opacity="0" offset="0%"></stop>
            <stop stop-color="#FFFFFF" stop-opacity="0.380945592" offset="100%"></stop>
        </linearGradient>
        <linearGradient x1="50%" y1="0%" x2="50%" y2="100%" id="linearGradient-2">
            <stop stop-color="#DDFFF0" stop-opacity="0.264051744" offset="0.0649117135%"></stop>
            <stop stop-color="#E2FFEF" stop-opacity="0.650779884" offset="100%"></stop>
        </linearGradient>
        <path d="M46.2923346,56.3795326 C46.1602788,56.3795326 46.0282231,56.3795326 45.8961674,56.3357256 C44.3995358,56.1166911 43.34309,54.758677 43.5191643,53.2692421 C44.8837401,40.5214321 49.4176534,31.102947 56.9448299,25.2328214 C62.3591147,20.9835514 69.2260125,18.6179784 77.3254305,18.1799093 L78.9981363,18.0922955 L78.9981363,9.0242657 C78.9981363,5.4320992 82.2995295,4.6435749 84.0602725,6.3958512 L104.616947,27.2041322 C107.214043,29.8325467 107.081988,32.5485749 104.484892,35.1769894 L84.4564397,55.4595875 C82.3435481,57.5623191 78.9981363,56.2919187 78.9981363,53.313049 L78.9981363,43.5879156 L76.9292633,43.5879156 C69.4020868,43.5879156 55.7123098,45.0773504 48.5372819,55.1091322 C48.0970962,55.9414635 47.2167246,56.3795326 46.2923346,56.3795326 Z" id="path-3"></path>
        <filter x="-22.2%" y="-27.5%" width="150.8%" height="162.7%" filterUnits="objectBoundingBox" id="filter-4">
            <feOffset dx="2" dy="2" in="SourceAlpha" result="shadowOffsetOuter1"></feOffset>
            <feGaussianBlur stdDeviation="5" in="shadowOffsetOuter1" result="shadowBlurOuter1"></feGaussianBlur>
            <feColorMatrix values="0 0 0 0 0   0 0 0 0 0   0 0 0 0 0  0 0 0 0.5 0" type="matrix" in="shadowBlurOuter1"></feColorMatrix>
        </filter>
    </defs>
    <g id="Page-1" stroke="none" stroke-width="1" fill="none" fill-rule="evenodd">
        <g id="dashboard" transform="translate(-353.000000, -274.000000)" fill-rule="nonzero">
            <g id="MTS" transform="translate(319.500000, 178.500000)">
                <g id="Group-36" transform="translate(34.000000, 102.000000)">
                    <path d="M67.5,10 C69.5710678,10 71.4460678,10.8394661 72.8033009,12.1966991 C74.1605339,13.5539322 75,15.4289322 75,17.5 L75,17.5 L75,64.5 C75,66.5710678 74.1605339,68.4460678 72.8033009,69.8033009 C71.4460678,71.1605339 69.5710678,72 67.5,72 L67.5,72 L7.5,72 C5.4289322,72 3.5539322,71.1605339 2.1966991,69.8033009 C0.8394661,68.4460678 0,66.5710678 0,64.5 L0,64.5 L0,26.5 C0,21.9436508 1.8468254,17.8186508 4.8327381,14.8327381 C7.8186508,11.8468254 11.9436508,10 16.5,10 L16.5,10 L67.5,10 Z" id="矩形" stroke="url(#linearGradient-1)" fill="#00FFBD" transform="translate(37.500000, 41.000000) scale(1, -1) translate(-37.500000, -41.000000) "></path>
                    <path d="M76.5,0 C78.5710678,0 80.4460678,0.8394661 81.8033009,2.1966991 C83.1605339,3.5539322 84,5.4289322 84,7.5 L84,7.5 L84,54.5 C84,56.5710678 83.1605339,58.4460678 81.8033009,59.8033009 C80.4460678,61.1605339 78.5710678,62 76.5,62 L76.5,62 L16.5,62 C14.4289322,62 12.5539322,61.1605339 11.1966991,59.8033009 C9.8394661,58.4460678 9,56.5710678 9,54.5 L9,54.5 L9,16.5 C9,11.9436508 10.8468254,7.8186508 13.8327381,4.8327381 C16.8186508,1.8468254 20.9436508,0 25.5,0 L25.5,0 L76.5,0 Z" id="矩形" fill="url(#linearGradient-2)" transform="translate(46.500000, 31.000000) scale(1, -1) translate(-46.500000, -31.000000) "></path>
                    <g id="路径" transform="translate(75.000000, 31.000000) scale(-1, -1) translate(-75.000000, -31.000000) ">
                        <use fill="black" fill-opacity="1" filter="url(#filter-4)" xlink:href="#path-3"></use>
                        <use fill="#00FFBD" xlink:href="#path-3"></use>
                    </g>
                </g>
            </g>
        </g>
    </g>
</svg>
