<?xml version="1.0" encoding="UTF-8"?>
<svg width="131px" height="135px" viewBox="0 0 131 135" version="1.1" xmlns="http://www.w3.org/2000/svg" xmlns:xlink="http://www.w3.org/1999/xlink">
    <title>pool</title>
    <defs>
        <linearGradient x1="99.1344906%" y1="34.4934334%" x2="32.6773932%" y2="56.0129196%" id="linearGradient-1">
            <stop stop-color="#7FFFD3" offset="0%"></stop>
            <stop stop-color="#04C994" offset="100%"></stop>
        </linearGradient>
        <linearGradient x1="50%" y1="0%" x2="50%" y2="100%" id="linearGradient-2">
            <stop stop-color="#59FFE9" stop-opacity="0.277788496" offset="0%"></stop>
            <stop stop-color="#7DFFD1" stop-opacity="0.6" offset="100%"></stop>
        </linearGradient>
        <linearGradient x1="50%" y1="0%" x2="50%" y2="100%" id="linearGradient-3">
            <stop stop-color="#59FFE9" stop-opacity="0.277788496" offset="0%"></stop>
            <stop stop-color="#7DFFD1" stop-opacity="0.6" offset="100%"></stop>
        </linearGradient>
        <linearGradient x1="50%" y1="0%" x2="50%" y2="100%" id="linearGradient-4">
            <stop stop-color="#DDFFF0" stop-opacity="0.264051744" offset="0.0649117135%"></stop>
            <stop stop-color="#E2FFEF" stop-opacity="0.650779884" offset="100%"></stop>
        </linearGradient>
    </defs>
    <g id="Page-1" stroke="none" stroke-width="1" fill="none" fill-rule="evenodd">
        <g id="Markets" transform="translate(-399.000000, -210.000000)" fill-rule="nonzero">
            <g id="CPZ" transform="translate(320.000000, 178.000000)">
                <g id="pool" transform="translate(79.475185, 31.999292)">
                    <path d="M52.8016102,71.3443427 C60.4466914,67.3631547 69.5535181,67.3631547 77.1985994,71.3443427 L77.1985994,71.3443427 L126.54166,97.0398188 C128.115098,97.8591888 129.207463,99.2387508 129.701626,100.80683 C130.195789,102.374908 130.09175,104.131504 129.27238,105.704942 C128.619739,106.95821 127.572105,107.961344 126.291706,108.559008 L126.291706,108.559008 L76.1710087,131.954308 C69.0904328,135.259374 60.9097767,135.259374 53.8292008,131.954308 L53.8292008,131.954308 L3.70850366,108.559008 C2.10100491,107.808661 0.949826143,106.477782 0.388108814,104.932614 C-0.17360851,103.387447 -0.145864392,101.627992 0.60448262,100.020493 C1.20214628,98.7400942 2.20528046,97.6924605 3.45854914,97.0398188 L3.45854914,97.0398188 L52.8016102,71.3443427 Z" id="矩形" fill="url(#linearGradient-1)"></path>
                    <path d="M52.8016102,53.7594985 C60.4466914,49.7783106 69.5535181,49.7783106 77.1985994,53.7594985 L77.1985994,53.7594985 L116.446974,74.1981509 C118.020412,75.0175209 119.112776,76.3970829 119.60694,77.9651617 C120.101103,79.5332404 119.997064,81.2898361 119.177694,82.8632737 C118.525052,84.1165423 117.477419,85.1196764 116.197019,85.7173401 L116.197019,85.7173401 L76.1710087,104.40065 C69.0904328,107.705716 60.9097767,107.705716 53.8292008,104.40065 L53.8292008,104.40065 L13.8031901,85.7173401 C12.1956913,84.9669931 11.0445126,83.6361138 10.4827952,82.0909465 C9.92107792,80.5457793 9.94882204,78.786324 10.699169,77.1788252 C11.2968327,75.8984263 12.2999669,74.8507926 13.5532356,74.1981509 L13.5532356,74.1981509 L52.8016102,53.7594985 Z" id="矩形备份-5" fill="url(#linearGradient-2)"></path>
                    <path d="M55.3810841,37.1685 C61.3445236,34.0630296 68.4481773,34.0630296 74.4116167,37.1685 L105.026766,53.1113869 C106.254104,53.7505251 107.106188,54.8266333 107.491653,56.0497913 C107.877119,57.2729494 107.795965,58.6431575 107.156826,59.8704956 C106.647742,60.8480904 105.83055,61.6305712 104.831793,62.0967705 L73.6100589,76.6704271 C68.086954,79.2484976 61.7057468,79.2484976 56.182642,76.6704271 L24.9609082,62.0967705 C23.7070011,61.5114727 22.8090401,60.4733388 22.3708803,59.2680525 C21.9327205,58.0627663 21.9543619,56.6903277 22.5396596,55.4364205 C23.0058589,54.4376631 23.7883398,53.620471 24.7659346,53.1113869 L55.3810841,37.1685 Z" id="矩形备份-5" fill="url(#linearGradient-3)"></path>
                    <path d="M49.4144541,3.82390961 C59.2051998,-1.27463654 70.8679434,-1.27463654 80.6586891,3.82390961 L115.409064,21.9202217 C117.424102,22.9695557 118.82305,24.7363048 119.455904,26.7444797 C120.088759,28.7526546 119.955521,31.0022554 118.906187,33.0172932 C118.070375,34.6223035 116.728713,35.9069767 115.088958,36.6723803 L79.3426954,53.3579929 C70.2748889,57.5906564 59.7982543,57.5906564 50.7304479,53.3579929 L14.9841855,36.6723803 C12.925527,35.7114414 11.451259,34.0070382 10.7318904,32.028205 C10.0125218,30.0493721 10.0480525,27.7961091 11.0089916,25.7374505 C11.7743952,24.0976955 13.0590684,22.7560335 14.6640789,21.9202217 L49.4144541,3.82390961 Z" id="矩形备份-6" fill-opacity="0.85" fill="url(#linearGradient-4)" transform="translate(65.036437, 28.266245) rotate(-360.000000) translate(-65.036437, -28.266245) "></path>
                </g>
            </g>
        </g>
    </g>
</svg>
