<?xml version="1.0" encoding="UTF-8"?>
<svg width="130px" height="133px" viewBox="0 0 130 133" version="1.1" xmlns="http://www.w3.org/2000/svg" xmlns:xlink="http://www.w3.org/1999/xlink">
    <title>borrow</title>
    <defs>
        <linearGradient x1="99.1344906%" y1="34.5284543%" x2="32.6773932%" y2="55.9993397%" id="linearGradient-1">
            <stop stop-color="#FE7FFF" offset="0%"></stop>
            <stop stop-color="#C404C9" offset="100%"></stop>
        </linearGradient>
        <linearGradient x1="50%" y1="0%" x2="50%" y2="100%" id="linearGradient-2">
            <stop stop-color="#EF59FF" stop-opacity="0.277788496" offset="0%"></stop>
            <stop stop-color="#F67DFF" stop-opacity="0.6" offset="100%"></stop>
        </linearGradient>
        <linearGradient x1="50%" y1="0%" x2="50%" y2="100%" id="linearGradient-3">
            <stop stop-color="#FFDDF8" stop-opacity="0.264051744" offset="0.0649117135%"></stop>
            <stop stop-color="#FDE2FF" stop-opacity="0.650779884" offset="100%"></stop>
        </linearGradient>
    </defs>
    <g id="Page-1" stroke="none" stroke-width="1" fill="none" fill-rule="evenodd">
        <g id="Markets" transform="translate(-1055.000000, -211.000000)">
            <g id="TB" transform="translate(976.000000, 178.000000)">
                <g id="borrow" transform="translate(79.000000, 33.144404)">
                    <path d="M52.8016102,69.8381133 C60.4466914,65.8614234 69.5535181,65.8614234 77.1985994,69.8381133 L126.54166,95.5045569 C128.115098,96.3230012 129.207463,97.7010044 129.701626,99.2673115 C130.195789,100.833619 130.09175,102.588229 129.27238,104.159889 C128.619739,105.411742 127.572105,106.413743 126.291706,107.010731 L76.1710087,130.379597 C69.0904328,133.680929 60.9097767,133.680929 53.8292008,130.379597 L3.70850366,107.010731 C2.10100491,106.261232 0.949826143,104.931856 0.388108814,103.388435 C-0.17360851,101.845013 -0.145864392,100.087546 0.60448262,98.4818635 C1.20214628,97.2029112 2.20528046,96.1564612 3.45854914,95.5045569 L52.8016102,69.8381133 Z" id="矩形" fill="url(#linearGradient-1)" fill-rule="nonzero"></path>
                    <path d="M52.7805735,51.8358541 C60.438839,47.8621765 69.5613708,47.8621765 77.2196363,51.8358541 L77.2196363,51.8358541 L116.535696,72.2359496 C118.111847,73.0537739 119.206096,74.4307333 119.701111,75.995854 C120.196127,77.5609746 120.091909,79.3142565 119.271125,80.8847259 C118.617358,82.1356303 117.567918,83.136872 116.285311,83.7334082 L116.285311,83.7334082 L76.1902735,102.381473 C69.0974869,105.680304 60.9027229,105.680304 53.8099363,102.381473 L53.8099363,102.381473 L13.7148991,83.7334082 C12.1046282,82.9844768 10.9514641,81.6561081 10.3887781,80.1138557 C9.8260921,78.5716034 9.85388406,76.8154673 10.6055251,75.211001 C11.2042194,73.9330174 12.2090835,72.8873601 13.4645136,72.2359496 L13.4645136,72.2359496 L52.7805735,51.8358541 Z" id="矩形备份-5" fill="url(#linearGradient-2)" fill-rule="nonzero"></path>
                    <path d="M52.7422283,36.8317963 C60.4245259,32.8635291 69.5756846,32.8635291 77.2579822,36.8317963 L77.2579822,36.8317963 L104.524825,50.9164002 C106.105922,51.733111 107.203605,53.1081956 107.700174,54.6711852 C108.196742,56.2341749 108.092197,57.9850695 107.268838,59.5534006 C106.613019,60.8026018 105.560286,61.8024802 104.273654,62.3982042 L104.273654,62.3982042 L76.2253892,75.3848416 C69.1103451,78.6791807 60.8898655,78.6791807 53.7748213,75.3848416 L53.7748213,75.3848416 L25.7265567,62.3982042 C24.1112326,61.6502925 22.9544499,60.3237325 22.3899981,58.7835799 C21.8255464,57.2434276 21.8534255,55.4896825 22.6074253,53.8874008 C23.2079984,52.6111574 24.2160157,51.5669238 25.4753854,50.9164002 L25.4753854,50.9164002 L52.7422283,36.8317963 Z" id="矩形备份-6" fill-opacity="0.85" fill="url(#linearGradient-3)" fill-rule="nonzero"></path>
                    <path d="M60.6977357,5.77406411 C61.8023052,5.77406411 62.6977357,6.66949462 62.6977357,7.77406411 L62.6977357,7.77406411 L62.6976695,17.4020641 L92.5803077,25.8342436 C94.1748889,26.284218 95.1027759,27.9416578 94.6528014,29.536239 C94.3694126,30.5404882 93.584557,31.3253438 92.5803077,31.6087327 L62.6976695,40.0400641 L62.6977357,48.7585785 C62.6977357,49.1959678 62.5544191,49.6194835 62.2924883,49.9655506 L62.1730422,50.1089381 C61.4272592,50.9237273 60.1621655,50.979668 59.3473762,50.233885 L59.3473762,50.233885 L40.1826274,32.6922407 C40.0522193,32.5728771 39.9271503,32.4478081 39.8077867,32.3173999 C37.5704377,29.8730321 37.7382597,26.0777509 40.1826274,23.8404019 L40.1826274,23.8404019 L59.3473762,6.29875766 C59.7161095,5.96125324 60.1978623,5.77406411 60.6977357,5.77406411 Z" id="Shapes" fill="#D72CDB" transform="translate(66.499997, 28.266327) rotate(90.000000) translate(-66.499997, -28.266327) "></path>
                </g>
            </g>
        </g>
    </g>
</svg>
